<?xml version="1.0" encoding="UTF-8"?>
<svg width="30px" height="30px" viewBox="0 0 30 30" version="1.1" xmlns="http://www.w3.org/2000/svg" xmlns:xlink="http://www.w3.org/1999/xlink">
    <!-- Generator: Sketch 52.4 (67378) - http://www.bohemiancoding.com/sketch -->
    <title>facebook (5)</title>
    <desc>Created with Sketch.</desc>
    <g id="Symbols" stroke="none" stroke-width="1" fill="none" fill-rule="evenodd">
        <g id="Footer" transform="translate(-1157.000000, -41.000000)">
            <g id="Group-23">
                <g id="Group-20" transform="translate(1157.000000, 41.000000)">
                    <g id="Group-25">
                        <g id="facebook-(5)">
                            <path d="M16.8432485,10.5303786 L18.3438158,10.5303786 C18.6652924,10.5303786 18.9268801,10.2800862 18.9268801,9.97242228 L18.9268801,7.6650354 C18.9268801,7.3573715 18.6653246,7.1070791 18.3438158,7.1070791 L16.2832456,7.1070791 C16.2634971,7.10627886 16.2291784,7.10526316 16.1810936,7.10526316 C15.7922982,7.10526316 14.4402953,7.17867036 13.3676667,8.12293013 C12.1968743,9.15380117 12.3089006,10.3869191 12.3581754,10.6909511 L12.3581754,12.1941828 L10.8667105,12.1941828 C10.5452339,12.1941828 10.2836462,12.4444752 10.2836462,12.7521391 L10.2836462,15.233795 C10.2836462,15.5414897 10.5452018,15.7918129 10.8667105,15.7918129 L12.2718801,15.7918129 L12.2718801,22.3060326 C12.2718801,22.6136657 12.5334357,22.8639889 12.8549444,22.8639889 L15.7936813,22.8639889 C16.1151579,22.8639889 16.3767456,22.6136657 16.3767456,22.3060326 L16.3767456,15.8239766 L18.0411871,15.8239766 C18.3375439,15.8239766 18.5865556,15.6115112 18.620424,15.3297938 L18.9230526,12.8160357 C18.9420614,12.6581102 18.8896023,12.4994768 18.7790556,12.3808249 C18.6685088,12.2622345 18.5099094,12.1942136 18.3438801,12.1942136 L16.3768743,12.1942136 L16.3768743,10.9323792 C16.3768099,10.6716528 16.4511404,10.5303786 16.8432485,10.5303786 Z M16.0488041,12.8220683 L18.2618947,12.8220683 L17.9760877,15.1961527 L16.0487076,15.1961527 C15.8675614,15.1961527 15.7206696,15.3366882 15.7206696,15.5100646 L15.7206696,22.2361342 L12.927924,22.2361342 L12.927924,15.4778701 C12.927924,15.3044937 12.7810322,15.1639581 12.599886,15.1639581 L10.9396901,15.1639581 L10.9396901,12.8220068 L12.6862135,12.8220068 C12.8673596,12.8220068 13.0142515,12.6814712 13.0142515,12.5080948 L13.0142515,10.6654355 C13.0142515,10.64743 13.0126433,10.6294244 13.0094269,10.6116651 C12.9748509,10.4216066 12.8512456,9.43084026 13.8119123,8.58497999 C14.7097632,7.79455217 15.852348,7.73311788 16.1811257,7.73311788 C16.2272164,7.73311788 16.254652,7.73428747 16.2596696,7.7345337 C16.2650731,7.73477993 16.2704766,7.73490305 16.2758801,7.73490305 L18.2708684,7.73490305 L18.2708684,9.90258541 L16.8432807,9.90258541 C16.1403743,9.90258541 15.7207339,10.2875654 15.7207339,10.9323792 L15.7207339,12.5081256 C15.7207339,12.6815328 15.8676579,12.8220683 16.0488041,12.8220683 Z" id="Shape" fill="#FFFFFF" fill-rule="nonzero"></path>
                            <path d="M13.5883099,17.6843029 C13.4071637,17.6843029 13.2602719,17.8248384 13.2602719,17.9982148 L13.2602719,18.1551862 C13.2602719,18.3285626 13.4071637,18.4690982 13.5883099,18.4690982 C13.7694561,18.4690982 13.916348,18.3285626 13.916348,18.1551862 L13.916348,17.9982148 C13.916348,17.8248384 13.769424,17.6843029 13.5883099,17.6843029 Z" id="Shape" fill="#FFFFFF" fill-rule="nonzero"></path>
                            <path d="M13.5883099,18.8457987 C13.4071637,18.8457987 13.2602719,18.9863343 13.2602719,19.1597107 L13.2602719,21.5454909 C13.2602719,21.7188673 13.4071637,21.8594029 13.5883099,21.8594029 C13.7694561,21.8594029 13.916348,21.7188673 13.916348,21.5454909 L13.916348,19.1597107 C13.916348,18.9863343 13.769424,18.8457987 13.5883099,18.8457987 Z" id="Shape" fill="#FFFFFF" fill-rule="nonzero"></path>
                            <circle id="Oval-Copy-2" stroke="#FFFFFF" stroke-width="1.12941176" cx="15" cy="15" r="14.4352941"></circle>
                        </g>
                    </g>
                </g>
            </g>
        </g>
    </g>
</svg>