<?xml version="1.0" encoding="UTF-8"?>
<svg width="21px" height="21px" viewBox="0 0 21 21" version="1.1" xmlns="http://www.w3.org/2000/svg" xmlns:xlink="http://www.w3.org/1999/xlink">
    <!-- Generator: Sketch 52.5 (67469) - http://www.bohemiancoding.com/sketch -->
    <title>Group 7 Copy 6</title>
    <desc>Created with Sketch.</desc>
    <g id="Page-1" stroke="none" stroke-width="1" fill="none" fill-rule="evenodd">
        <g id="Pricing-List-New-Design" transform="translate(-427.000000, -428.000000)" fill="#FFFFFF" fill-rule="nonzero">
            <g id="Group-3" transform="translate(-28.000000, 400.000000)">
                <g id="Group-7-Copy-6" transform="translate(455.000000, 28.000000)">
                    <g id="Group-4">
                        <g id="info-(1)-copy-3">
                            <path d="M17.8694548,3.06597072 C15.8923694,1.08880356 13.2637519,0 10.4676923,0 C7.67163267,0 5.04301522,1.08880356 3.06597072,3.06597072 C1.08880356,5.04301522 0,7.67163267 0,10.4676923 C0,13.2637519 1.08880356,15.8923694 3.06597072,17.8694548 C5.04301522,19.8465811 7.67163267,20.9353846 10.4676923,20.9353846 C13.2637519,20.9353846 15.8923694,19.8465811 17.8694548,17.8694548 C19.8465811,15.8923694 20.9353846,13.2637519 20.9353846,10.4676923 C20.9353846,7.67163267 19.8465811,5.04301522 17.8694548,3.06597072 Z M10.4676923,20.1013222 C5.15570647,20.1013222 0.834062452,15.779719 0.834062452,10.4676923 C0.834062452,5.15566558 5.15570647,0.834062452 10.4676923,0.834062452 C15.7796781,0.834062452 20.1013222,5.15570647 20.1013222,10.4676923 C20.1013222,15.7796781 15.7796781,20.1013222 10.4676923,20.1013222 Z" id="Shape"></path>
                            <path d="M18.89627,12.1904046 C18.6728502,12.1334865 18.4459956,12.2683807 18.3892411,12.491637 C18.1566212,13.4051067 17.7694393,14.2652975 17.238531,15.0483708 C17.1092795,15.2390382 17.1590828,15.498318 17.3497093,15.6276104 C17.4213885,15.676187 17.5027993,15.699494 17.5833924,15.699494 C17.717019,15.699494 17.8483558,15.6353794 17.9289489,15.5163912 C18.5141992,14.6532154 18.941003,13.7047444 19.1975024,12.6974743 C19.2543387,12.474259 19.1195262,12.2472 18.89627,12.1904046 Z" id="Shape"></path>
                            <path d="M19.0587237,10.0506611 C18.8284344,10.0506611 18.6416924,10.2374031 18.6416924,10.4676923 C18.6416924,10.586885 18.6391164,10.7070999 18.6340052,10.825025 C18.6240282,11.0551506 18.8025105,11.2497434 19.0326362,11.2596795 C19.0387696,11.2599658 19.0448621,11.2600884 19.0509547,11.2600884 C19.2729842,11.2600884 19.4576,11.0849999 19.4672908,10.8610486 C19.4729335,10.7311837 19.4757549,10.5988656 19.4757549,10.4676923 C19.4757549,10.2374031 19.2890129,10.0506611 19.0587237,10.0506611 Z" id="Shape"></path>
                            <path d="M10.4676923,7.06884079 C9.66286579,7.06884079 9.00806257,7.72364401 9.00806257,8.52847053 L9.00806257,15.7849529 C9.00806257,16.5897794 9.66286579,17.2445826 10.4676923,17.2445826 C11.2725188,17.2445826 11.927322,16.5897794 11.927322,15.7849529 L11.927322,8.52847053 C11.927322,7.72360313 11.2725188,7.06884079 10.4676923,7.06884079 Z M11.0932596,15.7849529 C11.0932596,16.1298961 10.8126355,16.4105202 10.4676923,16.4105202 C10.1227491,16.4105202 9.84212502,16.1298961 9.84212502,15.7849529 L9.84212502,8.52847053 C9.84212502,8.18352736 10.1227491,7.90290325 10.4676923,7.90290325 C10.8126355,7.90290325 11.0932596,8.18352736 11.0932596,8.52847053 L11.0932596,15.7849529 Z" id="Shape"></path>
                            <path d="M11.4995369,4.11785113 C11.2275405,3.84642714 10.8513987,3.690802 10.4676923,3.690802 C10.0839451,3.690802 9.70780327,3.84642714 9.43539793,4.11821913 C9.16381038,4.38988846 9.00806257,4.76607115 9.00806257,5.15043173 C9.00806257,5.53413808 9.16368772,5.91027988 9.43576594,6.18293055 C9.70776238,6.45439543 10.0839042,6.61006147 10.4676923,6.61006147 C10.8514395,6.61006147 11.2275813,6.45439543 11.5001911,6.18231721 C11.771656,5.91032077 11.927322,5.53417897 11.927322,5.15043173 C11.927322,4.76607115 11.7715742,4.38984757 11.4995369,4.11785113 Z M10.9104021,5.59256906 C10.7935401,5.70910392 10.6321905,5.77599901 10.4676923,5.77599901 C10.3030715,5.77599901 10.1417218,5.70910392 10.025555,5.59322329 C9.90902012,5.47636132 9.84212502,5.31497077 9.84212502,5.15047262 C9.84212502,4.98560647 9.90889745,4.82433858 10.0248599,4.70833529 C10.1417218,4.59180043 10.3031124,4.52490534 10.4676923,4.52490534 C10.6322313,4.52490534 10.7936219,4.59180043 10.910075,4.70800817 C11.0264872,4.82442036 11.0932187,4.98564736 11.0932187,5.15043173 C11.0932596,5.31501166 11.0263645,5.47636132 10.9104021,5.59256906 Z" id="Shape"></path>
                        </g>
                    </g>
                </g>
            </g>
        </g>
    </g>
</svg>