<?xml version="1.0" encoding="UTF-8"?>
<svg width="18px" height="18px" viewBox="0 0 18 18" version="1.1" xmlns="http://www.w3.org/2000/svg" xmlns:xlink="http://www.w3.org/1999/xlink">
    <!-- Generator: Sketch 52.5 (67469) - http://www.bohemiancoding.com/sketch -->
    <title>Group 20</title>
    <desc>Created with Sketch.</desc>
    <g id="Page-1" stroke="none" stroke-width="1" fill="none" fill-rule="evenodd">
        <g id="01-Homepage" transform="translate(-1306.000000, -48.000000)" fill="#FFFFFF" fill-rule="nonzero">
            <g id="Group-20" transform="translate(1306.000000, 48.000000)">
                <path d="M15.1875,0 L2.8125,0 C1.2616875,0 0,1.2616875 0,2.8125 L0,4.21875 C0,4.60708594 0.314789063,4.921875 0.703125,4.921875 C1.09146094,4.921875 1.40625,4.60708594 1.40625,4.21875 L1.40625,2.8125 C1.40625,2.03709375 2.03709375,1.40625 2.8125,1.40625 L15.1875,1.40625 C15.9629062,1.40625 16.59375,2.03709375 16.59375,2.8125 L16.59375,15.1875 C16.59375,15.9629062 15.9629062,16.59375 15.1875,16.59375 L2.8125,16.59375 C2.03709375,16.59375 1.40625,15.9629062 1.40625,15.1875 L1.40625,13.78125 C1.40625,13.3929141 1.09146094,13.078125 0.703125,13.078125 C0.314789063,13.078125 0,13.3929141 0,13.78125 L0,15.1875 C0,16.7383125 1.2616875,18 2.8125,18 L15.1875,18 C16.7383125,18 18,16.7383125 18,15.1875 L18,2.8125 C18,1.2616875 16.7383125,0 15.1875,0 Z" id="Shape"></path>
                <path d="M12.1254751,7.43564894 L9.46457547,4.71320775 C9.18654448,4.4287426 8.73598056,4.42896122 8.45819864,4.71368143 C8.18041672,4.99840165 8.18063021,5.4598058 8.4586612,5.74427095 L11.1193473,8.46645708 C11.396809,8.7505943 11.396809,9.21290938 11.1193473,9.4970466 C11.1183155,9.49810328 11.1172836,9.49919639 11.1162518,9.50025307 L8.45535215,12.2591314 C8.17917138,12.5454913 8.18194671,13.0068955 8.46157885,13.289721 C8.60023853,13.4300042 8.78095512,13.5 8.96160054,13.5 C9.1451992,13.5 9.3287267,13.4276722 9.4679201,13.2833445 L12.1274676,10.5258871 C12.9581448,9.67332973 12.9575399,8.28773266 12.1254751,7.43564894 Z" id="Shape"></path>
            </g>
        </g>
    </g>
</svg>