<?xml version="1.0" encoding="UTF-8"?>
<svg width="190px" height="47px" viewBox="0 0 190 47" version="1.1" xmlns="http://www.w3.org/2000/svg" xmlns:xlink="http://www.w3.org/1999/xlink">
    <!-- Generator: Sketch 52.4 (67378) - http://www.bohemiancoding.com/sketch -->
    <title>Group 9</title>
    <desc>Created with Sketch.</desc>
    <g id="Page-1" stroke="none" stroke-width="1" fill="none" fill-rule="evenodd">
        <g id="01-Homepage" transform="translate(-36.000000, -32.000000)">
            <g id="Group-9" transform="translate(36.000000, 32.000000)">
                <polygon id="Fill-1" fill="#FFFFFF" points="48.3666667 22.8576667 48.3241667 15.6666667 50.35 15.6666667 50.35 26.038 48.48 26.038 43.65 18.8618421 43.6925 26.038 41.6666667 26.038 41.6666667 15.6666667 43.5508333 15.6666667"></polygon>
                <path d="M53.7775,20.9578772 C53.7775,22.8502456 55.1516667,24.5043158 57.1916667,24.5043158 C59.3158333,24.5043158 60.5625,22.6828596 60.5625,20.9727193 C60.5625,19.2345439 59.3158333,17.4114386 57.1775,17.4114386 C55.0808333,17.4114386 53.7775,19.1215789 53.7775,20.9446842 L53.7775,20.9578772 Z M51.6666667,21.0419825 C51.6666667,17.7206491 54.245,15.5759649 57.1625,15.5759649 C60.3358333,15.5759649 62.6733333,18.0158421 62.6733333,20.9578772 C62.6733333,23.9015614 60.35,26.3397895 57.1491667,26.3397895 C53.9333333,26.3397895 51.6666667,23.8306491 51.6666667,21.056 L51.6666667,21.0419825 Z" id="Fill-2" fill="#FFFFFF"></path>
                <polygon id="Fill-4" fill="#FFFFFF" points="62.5 15.5759649 64.6816667 15.5759649 67.3025 23.453 69.9508333 15.5759649 72.1325 15.5759649 68.3791667 25.9472982 66.24 25.9472982"></polygon>
                <path d="M73.7775,20.9578772 C73.7775,22.8502456 75.1516667,24.5043158 77.1916667,24.5043158 C79.3158333,24.5043158 80.5625,22.6828596 80.5625,20.9727193 C80.5625,19.2345439 79.3158333,17.4114386 77.1775,17.4114386 C75.0808333,17.4114386 73.7775,19.1215789 73.7775,20.9446842 L73.7775,20.9578772 Z M71.6666667,21.0419825 C71.6666667,17.7206491 74.245,15.5759649 77.1625,15.5759649 C80.3358333,15.5759649 82.6733333,18.0158421 82.6733333,20.9578772 C82.6733333,23.9015614 80.35,26.3397895 77.1491667,26.3397895 C73.9333333,26.3397895 71.6666667,23.8306491 71.6666667,21.056 L71.6666667,21.0419825 Z" id="Fill-6" fill="#FFFFFF"></path>
                <path d="M91.6341667,18.9550175 C91.4216667,18.6309649 91.1666667,18.3382456 90.8541667,18.0999474 C90.3175,17.6794211 89.6508333,17.4122632 88.8433333,17.4122632 C87.1575,17.4122632 85.4441667,18.6746667 85.4441667,20.9306667 C85.4441667,23.2707719 87.1725,24.5043158 88.8433333,24.5043158 C89.6791667,24.5043158 90.3875,24.2660175 90.9258333,23.8735263 C91.4783333,23.4818596 91.8466667,22.9219825 92.0016667,22.304386 L88.0925,22.304386 L88.0925,20.6214561 L94.4383333,20.6214561 C94.4675,21.3091404 94.3683333,22.3612807 93.9716667,23.2295439 C92.9941667,25.3874211 90.7425,26.340614 88.8575,26.340614 C85.7275,26.340614 83.3333333,23.9444386 83.3333333,20.9306667 C83.3333333,17.8327895 85.8266667,15.5759649 88.8866667,15.5759649 C91.2516667,15.5759649 93.3341667,17.0626491 94.0133333,18.9550175 L91.6341667,18.9550175 Z" id="Fill-8" fill="#FFFFFF"></path>
                <path d="M95.8333333,15.5759649 L99.0058333,15.5759649 C100.635,15.5759649 101.570833,15.8291053 102.136667,16.2347895 C103.001667,16.8515614 103.468333,17.9028772 103.468333,19.0514912 C103.468333,19.8084386 103.255,20.4812807 102.901667,20.9859123 C102.4475,21.6455614 101.854167,21.9391053 101.173333,22.1081404 L103.510833,25.9472982 L101.300833,25.9472982 L98.4816667,21.1252632 L98.8933333,21.1252632 C99.5866667,21.1252632 100.3375,21.0840351 100.776667,20.7484386 C101.188333,20.4120175 101.441667,19.8645088 101.441667,19.2345439 C101.441667,18.6037544 101.130833,18.0290351 100.664167,17.7338421 C100.281667,17.4955439 99.7708333,17.4122632 99.1766667,17.4122632 L97.9441667,17.4122632 L97.9441667,25.9472982 L95.8333333,25.9472982 L95.8333333,15.5759649 Z" id="Fill-10" fill="#FFFFFF"></path>
                <path d="M108.418333,18.0430526 L106.931667,22.2483158 L109.948333,22.2483158 L108.418333,18.0430526 Z M105.628333,25.9472982 L103.333333,25.9472982 L107.583333,15.5759649 L109.439167,15.5759649 L113.589167,25.9472982 L111.28,25.9472982 L110.515,23.9147544 L106.379167,23.9147544 L105.628333,25.9472982 Z" id="Fill-12" fill="#FFFFFF"></path>
                <path d="M117.110833,24.1118246 L118.598333,24.1118246 C120.864167,24.1118246 121.743333,22.6399825 121.743333,20.7764737 C121.743333,19.9634561 121.53,19.095193 121.035,18.4495614 C120.595833,17.8888596 119.8875,17.4122632 118.6125,17.4122632 L117.110833,17.4122632 L117.110833,24.1118246 Z M115,15.5759649 L118.329167,15.5759649 C119.631667,15.5759649 121.53,15.7021228 122.776667,17.3702105 C123.541667,18.3234035 123.854167,19.4736667 123.854167,20.7492632 C123.854167,23.6772807 122.295,25.9481228 118.484167,25.9481228 L115,25.9481228 L115,15.5759649 Z" id="Fill-14" fill="#FFFFFF"></path>
                <polygon id="Fill-16" fill="#FFFFFF" points="131.700833 22.7669649 131.656667 15.5759649 133.683333 15.5759649 133.683333 25.9472982 131.813333 25.9472982 126.9825 18.7711404 127.026667 25.9472982 125 25.9472982 125 15.5759649 126.883333 15.5759649"></polygon>
                <path d="M140.84,22.1205088 C140.84,23.2287193 140.740833,23.8875439 140.5125,24.4053684 C140.301667,24.8407368 139.890833,25.2884737 139.465,25.5556316 C138.855833,25.9613158 138.133333,26.1435439 137.4675,26.1435439 C137.015,26.1435439 134.6775,25.9885263 134.238333,23.6344035 C134.195833,23.4249649 134.181667,23.1866667 134.166667,22.9483684 L136.419167,22.9483684 C136.419167,23.0464912 136.434167,23.1305965 136.448333,23.2287193 C136.603333,23.9015614 137.028333,24.3072456 137.566667,24.3072456 C138.148333,24.2932281 138.460833,23.9856667 138.5875,23.6344035 C138.714167,23.312 138.729167,22.9483684 138.729167,22.6259649 L138.729167,15.5759649 L140.84,15.5759649 L140.84,22.1205088 Z" id="Fill-18" fill="#FFFFFF"></path>
                <path d="M145.918333,18.0430526 L144.430833,22.2483158 L147.448333,22.2483158 L145.918333,18.0430526 Z M143.128333,25.9472982 L140.833333,25.9472982 L145.083333,15.5759649 L146.939167,15.5759649 L151.089167,25.9472982 L148.78,25.9472982 L148.015,23.9147544 L143.879167,23.9147544 L143.128333,25.9472982 Z" id="Fill-20" fill="#FFFFFF"></path>
                <polygon id="Fill-22" fill="#50E3B3" points="152.5 25.8961754 154.44 25.8961754 154.44 23.8215789 152.5 23.8215789"></polygon>
                <path d="M165.625,22.6688421 C164.986667,24.8143509 162.9475,26.340614 160.496667,26.340614 C157.295,26.340614 155,23.8314737 155,20.9455088 C155,18.1840526 157.168333,15.5759649 160.483333,15.5759649 C163.499167,15.590807 165.213333,17.7907368 165.625,19.3046316 L163.4,19.3046316 C163.074167,18.5897368 162.14,17.4271053 160.469167,17.4122632 C158.429167,17.4122632 157.110833,19.108386 157.110833,20.9455088 C157.110833,22.8362281 158.485,24.5051404 160.483333,24.5051404 C162.351667,24.5051404 163.203333,23.0473158 163.4,22.6688421 L165.625,22.6688421 Z" id="Fill-24" fill="#50E3B3"></path>
                <path d="M168.7775,20.9578772 C168.7775,22.8502456 170.150833,24.5043158 172.190833,24.5043158 C174.315833,24.5043158 175.563333,22.6828596 175.563333,20.9727193 C175.563333,19.2345439 174.315833,17.4114386 172.1775,17.4114386 C170.080833,17.4114386 168.7775,19.1215789 168.7775,20.9446842 L168.7775,20.9578772 Z M166.666667,21.0419825 C166.666667,17.7206491 169.245,15.5759649 172.1625,15.5759649 C175.336667,15.5759649 177.674167,18.0158421 177.674167,20.9578772 C177.674167,23.9015614 175.35,26.3397895 172.148333,26.3397895 C168.933333,26.3397895 166.666667,23.8306491 166.666667,21.056 L166.666667,21.0419825 Z" id="Fill-25" fill="#50E3B3"></path>
                <polygon id="Fill-26" fill="#50E3B3" points="178.333333 25.9472982 178.333333 15.5759649 181.181667 15.5759649 183.871667 23.0176316 186.521667 15.5759649 189.383333 15.5759649 189.383333 25.9472982 187.428333 25.9472982 187.485 17.6357193 184.5525 25.9472982 183.164167 25.9472982 180.218333 17.6357193 180.275 25.9472982"></polygon>
                <polygon id="Fill-27" fill="#FFFFFF" points="47.5941667 37.4152982 47.5825 30.4180702 48.4975 30.4180702 48.4975 38.795614 47.5825 38.795614 42.5591667 31.7431404 42.5816667 38.795614 41.6666667 38.795614 41.6666667 30.4180702 42.6283333 30.4180702"></polygon>
                <polygon id="Fill-28" fill="#FFFFFF" points="50 30.4180702 54.6908333 30.4180702 54.6908333 31.2442807 50.9383333 31.2442807 50.9383333 34.1541579 54.6683333 34.1541579 54.6683333 34.9803684 50.9383333 34.9803684 50.9383333 37.9694035 54.6908333 37.9694035 54.6908333 38.795614 50 38.795614"></polygon>
                <polygon id="Fill-29" fill="#FFFFFF" points="55 30.4180702 55.9725 30.4180702 57.895 37.5167193 59.7491667 30.4180702 60.4575 30.4180702 62.3466667 37.5167193 64.2458333 30.4180702 65.2066667 30.4180702 62.8375 38.795614 61.9116667 38.795614 60.1033333 31.9913333 58.2958333 38.795614 57.3458333 38.795614"></polygon>
                <path d="M70.105,37.9694035 L71.7875,37.9694035 C73.9608333,37.9694035 75.0941667,36.6443333 75.0941667,34.6291053 C75.0941667,33.6552982 74.8308333,32.7952807 74.27,32.1842807 C73.7325,31.617807 72.9425,31.2442807 71.7875,31.2442807 L70.105,31.2442807 L70.105,37.9694035 Z M69.1666667,30.4180702 L71.6958333,30.4180702 C72.8966667,30.4180702 74.1783333,30.6786316 75.025,31.6738772 C75.7116667,32.4209298 76.0433333,33.4071053 76.0433333,34.5952982 C76.0433333,37.1209298 74.59,38.795614 71.7408333,38.795614 L69.1666667,38.795614 L69.1666667,30.4180702 Z" id="Fill-30" fill="#FFFFFF"></path>
                <polygon id="Fill-31" fill="#FFFFFF" points="77.5 30.4180702 82.1916667 30.4180702 82.1916667 31.2442807 78.4383333 31.2442807 78.4383333 34.1541579 82.1691667 34.1541579 82.1691667 34.9803684 78.4383333 34.9803684 78.4383333 37.9694035 82.1916667 37.9694035 82.1916667 38.795614 77.5 38.795614"></polygon>
                <polygon id="Fill-32" fill="#FFFFFF" points="82.5 30.4180702 83.495 30.4180702 86.2991667 37.5843333 89.1141667 30.4180702 90.1091667 30.4180702 86.7458333 38.795614 85.8408333 38.795614"></polygon>
                <polygon id="Fill-33" fill="#FFFFFF" points="90.8333333 30.4180702 95.525 30.4180702 95.525 31.2442807 91.7716667 31.2442807 91.7716667 34.1541579 95.5025 34.1541579 95.5025 34.9803684 91.7716667 34.9803684 91.7716667 37.9694035 95.525 37.9694035 95.525 38.795614 90.8333333 38.795614"></polygon>
                <polygon id="Fill-34" fill="#FFFFFF" points="96.6666667 30.4180702 97.6166667 30.4180702 97.6166667 37.9694035 100.843333 37.9694035 100.843333 38.795614 96.6666667 38.795614"></polygon>
                <path d="M100.950833,34.7552632 C100.950833,36.7251404 102.45,38.2645965 104.429167,38.2645965 C106.431667,38.2645965 107.895833,36.6682456 107.895833,34.7552632 C107.895833,32.8422807 106.431667,31.2459298 104.4175,31.2459298 C102.426667,31.2459298 100.950833,32.8084737 100.950833,34.7437193 L100.950833,34.7552632 Z M100,34.7775263 C100,32.1958246 102.026667,30.4180702 104.4175,30.4180702 C106.901667,30.4180702 108.834167,32.2980702 108.834167,34.7552632 C108.834167,37.2124561 106.9125,39.090807 104.4175,39.090807 C101.911667,39.090807 100,37.1778246 100,34.7890702 L100,34.7775263 Z" id="Fill-35" fill="#FFFFFF"></path>
                <path d="M110.95,34.6744561 L112.300833,34.6744561 C113.009167,34.6744561 113.445,34.5952982 113.868333,34.323193 C114.234167,34.0865439 114.4975,33.5538772 114.4975,32.9659649 C114.4975,32.3648596 114.234167,31.8338421 113.856667,31.5955439 C113.433333,31.3234386 112.999167,31.2442807 112.2775,31.2442807 L110.95,31.2442807 L110.95,34.6744561 Z M112.231667,30.4180702 C113.420833,30.4180702 113.9825,30.5532982 114.509167,30.9490877 C115.069167,31.3811579 115.4125,32.1620175 115.4125,32.9428772 C115.4125,33.7352807 115.058333,34.5392281 114.543333,34.9350175 C113.9825,35.3654386 113.41,35.5006667 112.3125,35.5006667 L110.95,35.5006667 L110.95,38.795614 L110,38.795614 L110,30.4180702 L112.231667,30.4180702 Z" id="Fill-36" fill="#FFFFFF"></path>
                <polygon id="Fill-37" fill="#FFFFFF" points="115.833333 38.795614 115.833333 30.4180702 117.160833 30.4180702 120.295833 37.4491053 123.42 30.4180702 124.7475 30.4180702 124.7475 38.795614 123.854167 38.795614 123.876667 31.3457018 120.593333 38.795614 119.986667 38.795614 116.691667 31.3457018 116.714167 38.795614"></polygon>
                <polygon id="Fill-38" fill="#FFFFFF" points="126.666667 30.4180702 131.3575 30.4180702 131.3575 31.2442807 127.605833 31.2442807 127.605833 34.1541579 131.336667 34.1541579 131.336667 34.9803684 127.605833 34.9803684 127.605833 37.9694035 131.3575 37.9694035 131.3575 38.795614 126.666667 38.795614"></polygon>
                <polygon id="Fill-39" fill="#FFFFFF" points="138.4275 37.4136491 138.415833 30.4180702 139.330833 30.4180702 139.330833 38.795614 138.415833 38.795614 133.393333 31.7431404 133.414167 38.795614 132.5 38.795614 132.5 30.4180702 133.46 30.4180702"></polygon>
                <polygon id="Fill-40" fill="#FFFFFF" points="142.083333 31.2442807 140 31.2442807 140 30.4180702 145.125 30.4180702 145.125 31.2442807 143.0325 31.2442807 143.0325 38.795614 142.083333 38.795614"></polygon>
                <path d="M145.949167,36.6121754 C146.0875,38.0032105 147.1175,38.2984035 147.641667,38.2984035 C148.524167,38.2984035 149.335833,37.6313333 149.335833,36.7020526 C149.335833,35.5254035 148.3175,35.2640175 147.334167,34.9465614 C146.6475,34.7437193 145.170833,34.3141228 145.170833,32.7293158 C145.148333,31.2459298 146.395,30.4180702 147.689167,30.4180702 C148.740833,30.4180702 149.955,30.9960877 150.091667,32.5808947 L149.154167,32.5808947 C149.05,32.0383333 148.775,31.2121228 147.653333,31.2121228 C146.806667,31.2121228 146.108333,31.7777719 146.108333,32.6485088 C146.099167,33.6684912 146.934167,33.9175088 148.215,34.3479298 C149.015833,34.6538421 150.275,35.0949825 150.275,36.6344386 C150.275,38.0032105 149.233333,39.090807 147.653333,39.090807 C146.235833,39.090807 145.055833,38.2085263 145,36.6121754 L145.949167,36.6121754 Z" id="Fill-41" fill="#FFFFFF"></path>
                <polygon id="Fill-42" fill="#FFFFFF" points="154.166667 30.4180702 158.468333 30.4180702 158.468333 31.2442807 155.104167 31.2442807 155.104167 34.1879649 158.445833 34.1879649 158.445833 35.0257193 155.104167 35.0257193 155.104167 38.795614 154.166667 38.795614"></polygon>
                <polygon id="Fill-43" fill="#FFFFFF" points="159.166667 38.795614 160.105833 38.795614 160.105833 30.4180702 159.166667 30.4180702"></polygon>
                <polygon id="Fill-44" fill="#FFFFFF" points="167.5925 37.4136491 167.5825 30.4180702 168.4975 30.4180702 168.4975 38.795614 167.5825 38.795614 162.558333 31.7431404 162.580833 38.795614 161.666667 38.795614 161.666667 30.4180702 162.626667 30.4180702"></polygon>
                <path d="M170.939167,37.9694035 L172.620833,37.9694035 C174.793333,37.9694035 175.925833,36.6443333 175.925833,34.6291053 C175.925833,33.6552982 175.664167,32.7952807 175.1025,32.1842807 C174.565833,31.617807 173.775833,31.2442807 172.620833,31.2442807 L170.939167,31.2442807 L170.939167,37.9694035 Z M170,30.4180702 L172.5275,30.4180702 C173.729167,30.4180702 175.011667,30.6786316 175.8575,31.6738772 C176.545,32.4209298 176.876667,33.4071053 176.876667,34.5952982 C176.876667,37.1209298 175.423333,38.795614 172.573333,38.795614 L170,38.795614 L170,30.4180702 Z" id="Fill-45" fill="#FFFFFF"></path>
                <polygon id="Fill-46" fill="#FFFFFF" points="178.333333 30.4180702 183.024167 30.4180702 183.024167 31.2442807 179.270833 31.2442807 179.270833 34.1541579 183.001667 34.1541579 183.001667 34.9803684 179.270833 34.9803684 179.270833 37.9694035 183.024167 37.9694035 183.024167 38.795614 178.333333 38.795614"></polygon>
                <path d="M184.166667,30.4180702 L186.375,30.4180702 C187.703333,30.4180702 188.32,30.5755614 188.755,30.8476667 C189.441667,31.2558246 189.910833,32.1496491 189.910833,33.101193 C189.921667,33.6660175 189.7625,34.2671228 189.4075,34.7420702 C188.905,35.4215088 188.299167,35.5814737 187.519167,35.659807 L189.625833,38.795614 L188.595,38.795614 L186.204167,35.1386842 L186.4775,35.1386842 C187.073333,35.1386842 187.8975,35.1271404 188.354167,34.7082632 C188.801667,34.2786667 188.995833,33.7690877 188.995833,33.168807 C188.995833,32.5454386 188.686667,31.8899123 188.160833,31.550193 C187.7375,31.2780877 187.21,31.2442807 186.443333,31.2442807 L185.1175,31.2442807 L185.1175,38.795614 L184.166667,38.795614 L184.166667,30.4180702 Z" id="Fill-47" fill="#FFFFFF"></path>
                <path d="M28.6258333,31.866 C24.9325,37.3691228 20.135,41.4770877 18.1908333,43.0247895 C14.8333333,40.3565088 2.975,30.0816491 2.975,18.1271579 C2.975,9.7545614 9.37583333,3.67589474 18.1925,3.67589474 C27.0083333,3.67589474 33.405,9.7545614 33.405,18.1271579 C33.405,21.0947544 32.6708333,23.9601053 31.5183333,26.6316842 L33.7841667,28.8736667 C35.3466667,25.5787193 36.38,21.9539474 36.38,18.1271579 C36.38,8.21015789 28.5616667,0.733859649 18.1925,0.733859649 C7.82166667,0.733859649 0,8.21015789 0,18.1271579 C0,33.4681228 16.6116667,45.5726842 17.3191667,46.0797895 C17.5783333,46.2669649 17.885,46.3601404 18.1925,46.3601404 C18.4983333,46.3601404 18.8041667,46.2669649 19.0641667,46.0781404 C19.4983333,45.7672807 25.8966667,41.1002632 30.7916667,34.0065614 L28.6258333,31.866 Z" id="Fill-48" fill="#50E3B3"></path>
                <path d="M17.5941667,21.8921053 C16.1375,21.8921053 14.7683333,21.3314035 13.7383333,20.3105965 C12.7083333,19.2930877 12.1425,17.9383333 12.1425,16.497 C12.1425,13.5211579 14.5916667,11.0985965 17.6033333,11.0985965 C19.0591667,11.0985965 20.4275,11.6592982 21.4558333,12.6784561 C22.485,13.6967895 23.0516667,15.0523684 23.0508333,16.4937018 C23.0508333,19.4695439 20.6033333,21.8921053 17.5941667,21.8921053 M32.2908333,28.9635439 L24.5091667,21.2530702 C25.4616667,19.901614 26.025,18.262386 26.025,16.4937018 C26.0266667,14.2682105 25.1508333,12.173 23.5608333,10.5964386 C21.9691667,9.02317544 19.8508333,8.15491228 17.5941667,8.15491228 C12.9475,8.15491228 9.16666667,11.8975965 9.16666667,16.4953509 C9.16666667,18.7224912 10.0425,20.8177018 11.6341667,22.392614 C13.2258333,23.9667018 15.3425,24.8357895 17.5941667,24.8357895 C19.3833333,24.8357895 21.04,24.2775614 22.405,23.3334386 L30.1866667,31.0447368 C30.4675,31.3217895 30.8408333,31.4743333 31.2383333,31.4743333 C31.6358333,31.4743333 32.01,31.3217895 32.2908333,31.0447368 C32.5716667,30.7660351 32.7266667,30.3966316 32.7266667,30.0041404 C32.7266667,29.6108246 32.5716667,29.2405965 32.2908333,28.9635439" id="Fill-49" fill="#FFFFFF"></path>
            </g>
        </g>
    </g>
</svg>