<svg width="15" height="23" viewBox="0 0 15 23" fill="none" xmlns="http://www.w3.org/2000/svg">
<path fill-rule="evenodd" clip-rule="evenodd" d="M0.0244141 7.86003C0.0244141 3.77422 3.17366 0.450012 7.04441 0.450012C10.9152 0.450012 14.0644 3.77422 14.0644 7.85998C14.0644 9.08654 13.7739 10.3027 13.2237 11.3778L7.42831 22.4412C7.35118 22.5887 7.20421 22.68 7.04441 22.68C6.88461 22.68 6.73765 22.5887 6.66052 22.4412L0.867224 11.3814C0.314935 10.3027 0.0244141 9.08658 0.0244141 7.86003ZM3.53443 7.86003C3.53443 9.90293 5.10904 11.565 7.04441 11.565C8.97979 11.565 10.5544 9.90293 10.5544 7.86003C10.5544 5.81712 8.97979 4.15504 7.04441 4.15504C5.10904 4.15504 3.53443 5.81712 3.53443 7.86003Z" fill="#FCBD5F"/>
</svg>
