<?xml version="1.0" encoding="UTF-8"?>
<svg width="583px" height="134px" viewBox="0 0 583 134" version="1.1" xmlns="http://www.w3.org/2000/svg" xmlns:xlink="http://www.w3.org/1999/xlink">
    <!-- Generator: Sketch 52.5 (67469) - http://www.bohemiancoding.com/sketch -->
    <title>Page 1 Copy</title>
    <desc>Created with Sketch.</desc>
    <defs>
        <polygon id="path-1" points="0 0.429372242 53.5452267 0.429372242 53.5452267 92.5124555 0 92.5124555"></polygon>
        <polygon id="path-3" points="0.22194829 0.134476868 27.6291201 0.134476868 27.6291201 133.26672 0.22194829 133.26672"></polygon>
        <polygon id="path-5" points="0 133.523132 582.647257 133.523132 582.647257 0.134476868 0 0.134476868"></polygon>
    </defs>
    <g id="Page-1" stroke="none" stroke-width="1" fill="none" fill-rule="evenodd">
        <g id="Pricing-List-New-Design" transform="translate(-648.000000, -122.000000)">
            <g id="Page-1-Copy" transform="translate(648.000000, 122.000000)">
                <polygon id="Fill-1" fill="#FFFFFF" points="269.455669 36.652052 269.455669 47.0272762 267.804468 47.0272762 267.804468 40.958173 266.380201 40.958173 266.380201 47.0272762 252.10952 47.0272762 252.10952 53.6562228 243.167971 53.6562228 243.167971 60.2689559 243.167971 61.8202085 243.167971 133.694757 301.121874 133.694757 301.121874 61.8202085 301.121874 60.2689559 301.121874 53.6562228 272.858243 53.6562228 272.858243 47.0272762 270.879936 47.0272762 270.879936 36.652052"></polygon>
                <polygon id="Fill-2" fill="#FFFFFF" points="244.592665 0.476772954 217.185493 17.331684 217.185493 133.609349 244.592665 133.609349"></polygon>
                <polygon id="Fill-3" fill="#FFFFFF" points="175.740792 133.696712 218.609808 133.696712 218.609808 23.2025053 175.740792 23.2025053"></polygon>
                <path d="M181.523317,36.4522918 L213.183825,36.4522918 L213.183825,28.9888256 L181.523317,28.9888256 L181.523317,36.4522918 Z M180.09905,37.8828968 L214.608092,37.8828968 L214.608092,27.5582206 L180.09905,27.5582206 L180.09905,37.8828968 Z" id="Fill-4" fill="#48443E"></path>
                <path d="M181.523317,49.5594947 L213.183825,49.5594947 L213.183825,42.0969822 L181.523317,42.0969822 L181.523317,49.5594947 Z M180.09905,50.9900996 L214.608092,50.9900996 L214.608092,40.6663772 L180.09905,40.6663772 L180.09905,50.9900996 Z" id="Fill-5" fill="#48443E"></path>
                <path d="M181.523317,62.6676512 L213.183825,62.6676512 L213.183825,55.2037082 L181.523317,55.2037082 L181.523317,62.6676512 Z M180.09905,64.0977794 L214.608092,64.0977794 L214.608092,53.7726263 L180.09905,53.7726263 L180.09905,64.0977794 Z" id="Fill-6" fill="#48443E"></path>
                <path d="M181.523317,75.7748541 L213.183825,75.7748541 L213.183825,68.310911 L181.523317,68.310911 L181.523317,75.7748541 Z M180.09905,77.2054591 L214.608092,77.2054591 L214.608092,66.880306 L180.09905,66.880306 L180.09905,77.2054591 Z" id="Fill-7" fill="#48443E"></path>
                <path d="M181.523317,88.8815801 L213.183825,88.8815801 L213.183825,81.4185907 L181.523317,81.4185907 L181.523317,88.8815801 Z M180.09905,90.3121851 L214.608092,90.3121851 L214.608092,79.9879858 L180.09905,79.9879858 L180.09905,90.3121851 Z" id="Fill-8" fill="#48443E"></path>
                <path d="M181.523317,101.990214 L213.183825,101.990214 L213.183825,94.5267473 L181.523317,94.5267473 L181.523317,101.990214 Z M180.09905,103.420342 L214.608092,103.420342 L214.608092,93.0956655 L180.09905,93.0956655 L180.09905,103.420342 Z" id="Fill-9" fill="#48443E"></path>
                <path d="M181.523317,115.09694 L213.183825,115.09694 L213.183825,107.63395 L181.523317,107.63395 L181.523317,115.09694 Z M180.09905,116.527544 L214.608092,116.527544 L214.608092,106.203345 L180.09905,106.203345 L180.09905,116.527544 Z" id="Fill-10" fill="#48443E"></path>
                <path d="M181.523317,128.203665 L213.183825,128.203665 L213.183825,120.74163 L181.523317,120.74163 L181.523317,128.203665 Z M180.09905,129.63427 L214.608092,129.63427 L214.608092,119.311025 L180.09905,119.311025 L180.09905,129.63427 Z" id="Fill-11" fill="#48443E"></path>
                <g id="Group-145">
                    <path d="M383.47333,92.8670071 C383.47333,98.0128932 379.232812,102.19932 374.020944,102.19932 L371.712682,102.202658 C370.292687,102.205043 368.531344,102.207427 366.757656,102.207427 C363.023703,102.207427 360.593903,102.195505 359.330104,102.168324 C353.897949,102.052445 349.553934,98.173121 349.646037,93.5227011 C349.715351,90.2513843 352.018391,87.2933701 355.514492,85.9853203 L356.21808,85.7230427 L355.919459,85.030153 C355.58618,84.2585801 355.417167,83.4469502 355.417167,82.6200605 C355.417167,80.2576548 356.794433,78.1041174 358.925612,77.1355979 L359.373306,76.9314982 L359.342922,76.4388932 C359.331528,76.2605445 359.324881,76.0793345 359.324881,75.8981246 C359.324881,73.6334769 364.494021,72.1132206 369.322287,72.1132206 C373.157363,72.1132206 376.108919,73.0502669 376.340125,74.3421032 L376.445046,74.9305587 L377.156705,74.9291281 C380.883538,74.9291281 383.915802,78.0015907 383.915802,81.7774342 C383.915802,83.6314982 383.197972,85.3658683 381.894767,86.6610427 L381.467962,87.0849786 L381.81216,87.5794911 C382.898875,89.1398043 383.47333,90.9685943 383.47333,92.8670071" id="Fill-12" fill="#50E3B3"></path>
                    <path d="M121.286741,97.5020719 L121.286741,91.5312036 L126.432618,81.4401929 C126.612075,81.0887409 126.473447,80.6586057 126.123552,80.4783495 C125.773182,80.2976164 125.344478,80.4363851 125.16502,80.7883139 L121.286741,88.39341 L121.286741,71.8847053 C121.286741,71.4893815 120.967705,71.1694028 120.574607,71.1694028 C120.181035,71.1694028 119.862474,71.4893815 119.862474,71.8847053 L119.862474,88.6924064 L115.832747,80.7883139 C115.65329,80.4368619 115.224111,80.2976164 114.874216,80.4783495 C114.524321,80.6586057 114.385692,81.0887409 114.56515,81.4401929 L119.862474,91.8306769 L119.862474,97.6217658 C114.337742,97.5759865 110.334602,91.3938655 110.334602,82.8865345 C110.334602,75.4488192 118.125343,65.6873246 120.225662,63.1918726 C122.421882,65.6634811 130.663166,75.4392819 130.663166,82.8865345 C130.663166,90.3790897 126.566499,96.5798085 121.286741,97.5020719" id="Fill-14" fill="#50E3B3"></path>
                    <polygon id="Fill-16" fill="#FFFFFF" points="157.033424 42.281721 146.621557 42.281721 140.717495 42.281721 140.717495 133.269628 146.621557 133.269628 157.033424 133.269628 159.874362 133.269628 172.838516 133.269628 176.796079 133.269628 176.796079 42.281721"></polygon>
                    <g id="Group-20" transform="translate(0.000000, 41.010676)">
                        <mask id="mask-2" fill="white">
                            <use xlink:href="#path-1"></use>
                        </mask>
                        <g id="Clip-19"></g>
                        <polygon id="Fill-18" fill="#FFFFFF" mask="url(#mask-2)" points="49.6978065 10.787906 49.6978065 0.429372242 3.10290831 0.429372242 3.10290831 10.787906 -9.49511401e-05 10.787906 -9.49511401e-05 92.5126463 10.6401298 92.5126463 25.0356721 92.5126463 29.0055793 92.5126463 43.4025459 92.5126463 53.5452267 92.5126463 53.5452267 10.787906"></polygon>
                    </g>
                    <polygon id="Fill-21" fill="#FFFFFF" points="62.1778046 18.0704007 62.1778046 3.11771744 60.7535375 3.11771744 60.7535375 18.0704007 52.328048 18.0704007 52.328048 22.6736107 52.328048 24.1042157 52.328048 133.354273 90.720592 133.354273 90.720592 24.1042157 90.720592 22.6736107 90.720592 18.0704007"></polygon>
                    <g id="Group-25" transform="translate(216.963355, 0.000000)">
                        <mask id="mask-4" fill="white">
                            <use xlink:href="#path-3"></use>
                        </mask>
                        <g id="Clip-24"></g>
                        <path d="M26.204853,131.836115 L1.64621539,131.836115 L1.64621539,17.7916235 L26.204853,2.68729609 L26.204853,131.836115 Z M0.22194829,16.9890541 L0.22194829,133.26672 L27.6291201,133.26672 L27.6291201,0.13414306 L0.22194829,16.9890541 Z" id="Fill-23" fill="#48443E" mask="url(#mask-4)"></path>
                    </g>
                    <mask id="mask-6" fill="white">
                        <use xlink:href="#path-5"></use>
                    </mask>
                    <g id="Clip-27"></g>
                    <polygon id="Fill-26" fill="#48443E" mask="url(#mask-6)" points="223.465134 78.755758 224.889401 78.755758 224.889401 23.5778007 223.465134 23.5778007"></polygon>
                    <polygon id="Fill-28" fill="#48443E" mask="url(#mask-6)" points="230.176756 100.707438 231.601023 100.707438 231.601023 17.4552883 230.176756 17.4552883"></polygon>
                    <polygon id="Fill-29" fill="#48443E" mask="url(#mask-6)" points="236.888377 118.700633 238.312644 118.700633 238.312644 12.4171744 236.888377 12.4171744"></polygon>
                    <path d="M177.165059,131.923715 L217.185541,131.923715 L217.185541,24.2911957 L177.165059,24.2911957 L177.165059,131.923715 Z M175.740792,133.35432 L218.609808,133.35432 L218.609808,22.8605907 L175.740792,22.8605907 L175.740792,133.35432 Z" id="Fill-30" fill="#48443E" mask="url(#mask-6)"></path>
                    <path d="M181.523317,36.1099004 L213.183825,36.1099004 L213.183825,28.6464342 L181.523317,28.6464342 L181.523317,36.1099004 Z M180.09905,37.5405053 L214.608092,37.5405053 L214.608092,27.2158292 L180.09905,27.2158292 L180.09905,37.5405053 Z" id="Fill-31" fill="#48443E" mask="url(#mask-6)"></path>
                    <path d="M181.523317,49.2171032 L213.183825,49.2171032 L213.183825,41.7545907 L181.523317,41.7545907 L181.523317,49.2171032 Z M180.09905,50.6477082 L214.608092,50.6477082 L214.608092,40.3239858 L180.09905,40.3239858 L180.09905,50.6477082 Z" id="Fill-32" fill="#48443E" mask="url(#mask-6)"></path>
                    <path d="M181.523317,62.3252598 L213.183825,62.3252598 L213.183825,54.8613167 L181.523317,54.8613167 L181.523317,62.3252598 Z M180.09905,63.7553879 L214.608092,63.7553879 L214.608092,53.4302349 L180.09905,53.4302349 L180.09905,63.7553879 Z" id="Fill-33" fill="#48443E" mask="url(#mask-6)"></path>
                    <path d="M181.523317,75.4324626 L213.183825,75.4324626 L213.183825,67.9685196 L181.523317,67.9685196 L181.523317,75.4324626 Z M180.09905,76.8630676 L214.608092,76.8630676 L214.608092,66.5379146 L180.09905,66.5379146 L180.09905,76.8630676 Z" id="Fill-34" fill="#48443E" mask="url(#mask-6)"></path>
                    <path d="M181.523317,88.5391886 L213.183825,88.5391886 L213.183825,81.0761993 L181.523317,81.0761993 L181.523317,88.5391886 Z M180.09905,89.9697936 L214.608092,89.9697936 L214.608092,79.6455943 L180.09905,79.6455943 L180.09905,89.9697936 Z" id="Fill-35" fill="#48443E" mask="url(#mask-6)"></path>
                    <path d="M181.523317,101.647822 L213.183825,101.647822 L213.183825,94.1843559 L181.523317,94.1843559 L181.523317,101.647822 Z M180.09905,103.07795 L214.608092,103.07795 L214.608092,92.753274 L180.09905,92.753274 L180.09905,103.07795 Z" id="Fill-36" fill="#48443E" mask="url(#mask-6)"></path>
                    <path d="M181.523317,114.754548 L213.183825,114.754548 L213.183825,107.291559 L181.523317,107.291559 L181.523317,114.754548 Z M180.09905,116.185153 L214.608092,116.185153 L214.608092,105.860954 L180.09905,105.860954 L180.09905,116.185153 Z" id="Fill-37" fill="#48443E" mask="url(#mask-6)"></path>
                    <path d="M181.523317,127.861274 L213.183825,127.861274 L213.183825,120.399238 L181.523317,120.399238 L181.523317,127.861274 Z M180.09905,129.291879 L214.608092,129.291879 L214.608092,118.968633 L180.09905,118.968633 L180.09905,129.291879 Z" id="Fill-38" fill="#48443E" mask="url(#mask-6)"></path>
                    <path d="M53.7523151,22.6736584 L89.2963249,22.6736584 L89.2963249,19.5010534 L53.7523151,19.5010534 L53.7523151,22.6736584 Z M89.2963249,131.923715 L79.7024617,131.923715 L79.7024617,122.85368 L63.3457036,122.85368 L63.3457036,131.923715 L53.7523151,131.923715 L53.7523151,24.1042633 L89.2963249,24.1042633 L89.2963249,131.923715 Z M64.7699707,131.873644 L78.2781946,131.873644 L78.2781946,124.284285 L64.7699707,124.284285 L64.7699707,131.873644 Z M62.1778046,18.0704484 L62.1778046,3.11728826 L60.7535375,3.11728826 L60.7535375,18.0704484 L52.328048,18.0704484 L52.328048,22.6736584 L52.328048,24.1042633 L52.328048,133.35432 L90.720592,133.35432 L90.720592,24.1042633 L90.720592,22.6736584 L90.720592,18.0704484 L62.1778046,18.0704484 Z" id="Fill-39" fill="#48443E" mask="url(#mask-6)"></path>
                    <polygon id="Fill-40" fill="#48443E" mask="url(#mask-6)" points="61.465671 33.2587046 82.3601441 33.2587046 82.3601441 31.8280996 61.465671 31.8280996"></polygon>
                    <polygon id="Fill-41" fill="#48443E" mask="url(#mask-6)" points="61.465671 43.6015018 82.3601441 43.6015018 82.3601441 42.1708968 61.465671 42.1708968"></polygon>
                    <polygon id="Fill-42" fill="#48443E" mask="url(#mask-6)" points="61.465671 53.9438221 82.3601441 53.9438221 82.3601441 52.5132171 61.465671 52.5132171"></polygon>
                    <polygon id="Fill-43" fill="#48443E" mask="url(#mask-6)" points="61.465671 64.2861423 82.3601441 64.2861423 82.3601441 62.8555374 61.465671 62.8555374"></polygon>
                    <polygon id="Fill-44" fill="#48443E" mask="url(#mask-6)" points="61.465671 74.6284626 82.3601441 74.6284626 82.3601441 73.1978577 61.465671 73.1978577"></polygon>
                    <polygon id="Fill-45" fill="#48443E" mask="url(#mask-6)" points="61.465671 84.9707829 82.3601441 84.9707829 82.3601441 83.5401779 61.465671 83.5401779"></polygon>
                    <polygon id="Fill-46" fill="#48443E" mask="url(#mask-6)" points="61.465671 95.3131032 82.3601441 95.3131032 82.3601441 93.8824982 61.465671 93.8824982"></polygon>
                    <polygon id="Fill-47" fill="#48443E" mask="url(#mask-6)" points="61.465671 105.656377 82.3601441 105.656377 82.3601441 104.225772 61.465671 104.225772"></polygon>
                    <polygon id="Fill-48" fill="#48443E" mask="url(#mask-6)" points="61.465671 115.998698 82.3601441 115.998698 82.3601441 114.568093 61.465671 114.568093"></polygon>
                    <path d="M52.1207697,131.914321 L44.1149643,131.914321 L44.1149643,120.817118 C44.1149643,120.421794 43.7959285,120.101816 43.4028308,120.101816 L29.0058642,120.101816 C28.6118169,120.101816 28.2937306,120.421794 28.2937306,120.817118 L28.2937306,131.914321 L25.7476158,131.914321 L25.7476158,120.817118 C25.7476158,120.421794 25.4290547,120.101816 25.0354822,120.101816 L10.6404147,120.101816 C10.2468422,120.101816 9.92828111,120.421794 9.92828111,120.817118 L9.92828111,131.914321 L1.424457,131.914321 L1.424457,53.0503139 L3.10319316,53.0503139 L49.6976166,53.0503139 L52.1207697,53.0503139 L52.1207697,131.914321 Z M29.7179977,131.914321 L42.6906972,131.914321 L42.6906972,121.532421 L29.7179977,121.532421 L29.7179977,131.914321 Z M11.3525482,131.914321 L24.3233487,131.914321 L24.3233487,121.532421 L11.3525482,121.532421 L11.3525482,131.914321 Z M4.52746026,51.6197089 L48.2738243,51.6197089 L48.2738243,42.6922569 L4.52746026,42.6922569 L4.52746026,51.6197089 Z M49.6976166,51.6197089 L49.6976166,41.261652 L3.10319316,41.261652 L3.10319316,51.6197089 L0.00018990228,51.6197089 L0.00018990228,133.344926 L10.6404147,133.344926 L25.0354822,133.344926 L29.0058642,133.344926 L43.4028308,133.344926 L53.5450368,133.344926 L53.5450368,51.6197089 L49.6976166,51.6197089 Z" id="Fill-49" fill="#48443E" mask="url(#mask-6)"></path>
                    <path d="M42.392883,46.0342456 L11.0290971,46.0342456 C10.6359994,46.0342456 10.3169636,46.3542242 10.3169636,46.749548 C10.3169636,47.144395 10.6359994,47.4648505 11.0290971,47.4648505 L42.392883,47.4648505 C42.7864555,47.4648505 43.1050165,47.144395 43.1050165,46.749548 C43.1050165,46.3542242 42.7864555,46.0342456 42.392883,46.0342456" id="Fill-50" fill="#48443E" mask="url(#mask-6)"></path>
                    <path d="M6.76147068,64.2022135 L16.009237,64.2022135 L16.009237,58.0477509 L6.76147068,58.0477509 L6.76147068,64.2022135 Z M5.33720358,65.6328185 L17.4335041,65.6328185 L17.4335041,56.6171459 L5.33720358,56.6171459 L5.33720358,65.6328185 Z" id="Fill-51" fill="#48443E" mask="url(#mask-6)"></path>
                    <path d="M22.3966002,64.2022135 L31.6443664,64.2022135 L31.6443664,58.0477509 L22.3966002,58.0477509 L22.3966002,64.2022135 Z M20.9723331,65.6328185 L33.0686336,65.6328185 L33.0686336,56.6171459 L20.9723331,56.6171459 L20.9723331,65.6328185 Z" id="Fill-52" fill="#48443E" mask="url(#mask-6)"></path>
                    <path d="M38.0312549,64.2022135 L47.2785464,64.2022135 L47.2785464,58.0477509 L38.0312549,58.0477509 L38.0312549,64.2022135 Z M36.6069878,65.6328185 L48.7028135,65.6328185 L48.7028135,56.6171459 L36.6069878,56.6171459 L36.6069878,65.6328185 Z" id="Fill-53" fill="#48443E" mask="url(#mask-6)"></path>
                    <path d="M6.76147068,74.6318007 L16.009237,74.6318007 L16.009237,68.4773381 L6.76147068,68.4773381 L6.76147068,74.6318007 Z M5.33720358,76.0624057 L17.4335041,76.0624057 L17.4335041,67.0467331 L5.33720358,67.0467331 L5.33720358,76.0624057 Z" id="Fill-54" fill="#48443E" mask="url(#mask-6)"></path>
                    <path d="M22.3966002,74.6318007 L31.6443664,74.6318007 L31.6443664,68.4773381 L22.3966002,68.4773381 L22.3966002,74.6318007 Z M20.9723331,76.0624057 L33.0686336,76.0624057 L33.0686336,67.0467331 L20.9723331,67.0467331 L20.9723331,76.0624057 Z" id="Fill-55" fill="#48443E" mask="url(#mask-6)"></path>
                    <path d="M38.0312549,74.6318007 L47.2785464,74.6318007 L47.2785464,68.4773381 L38.0312549,68.4773381 L38.0312549,74.6318007 Z M36.6069878,76.0624057 L48.7028135,76.0624057 L48.7028135,67.0467331 L36.6069878,67.0467331 L36.6069878,76.0624057 Z" id="Fill-56" fill="#48443E" mask="url(#mask-6)"></path>
                    <path d="M6.76147068,85.0618648 L16.009237,85.0618648 L16.009237,78.907879 L6.76147068,78.907879 L6.76147068,85.0618648 Z M5.33720358,86.4924698 L17.4335041,86.4924698 L17.4335041,77.477274 L5.33720358,77.477274 L5.33720358,86.4924698 Z" id="Fill-57" fill="#48443E" mask="url(#mask-6)"></path>
                    <path d="M22.3966002,85.0618648 L31.6443664,85.0618648 L31.6443664,78.907879 L22.3966002,78.907879 L22.3966002,85.0618648 Z M20.9723331,86.4924698 L33.0686336,86.4924698 L33.0686336,77.477274 L20.9723331,77.477274 L20.9723331,86.4924698 Z" id="Fill-58" fill="#48443E" mask="url(#mask-6)"></path>
                    <path d="M38.0312549,85.0618648 L47.2785464,85.0618648 L47.2785464,78.907879 L38.0312549,78.907879 L38.0312549,85.0618648 Z M36.6069878,86.4924698 L48.7028135,86.4924698 L48.7028135,77.477274 L36.6069878,77.477274 L36.6069878,86.4924698 Z" id="Fill-59" fill="#48443E" mask="url(#mask-6)"></path>
                    <path d="M6.76147068,95.4919288 L16.009237,95.4919288 L16.009237,89.3379431 L6.76147068,89.3379431 L6.76147068,95.4919288 Z M5.33720358,96.9225338 L17.4335041,96.9225338 L17.4335041,87.9073381 L5.33720358,87.9073381 L5.33720358,96.9225338 Z" id="Fill-60" fill="#48443E" mask="url(#mask-6)"></path>
                    <path d="M22.3966002,95.4919288 L31.6443664,95.4919288 L31.6443664,89.3379431 L22.3966002,89.3379431 L22.3966002,95.4919288 Z M20.9723331,96.9225338 L33.0686336,96.9225338 L33.0686336,87.9073381 L20.9723331,87.9073381 L20.9723331,96.9225338 Z" id="Fill-61" fill="#48443E" mask="url(#mask-6)"></path>
                    <path d="M38.0312549,95.4919288 L47.2785464,95.4919288 L47.2785464,89.3379431 L38.0312549,89.3379431 L38.0312549,95.4919288 Z M36.6069878,96.9225338 L48.7028135,96.9225338 L48.7028135,87.9073381 L36.6069878,87.9073381 L36.6069878,96.9225338 Z" id="Fill-62" fill="#48443E" mask="url(#mask-6)"></path>
                    <path d="M6.76147068,105.921993 L16.009237,105.921993 L16.009237,99.7675302 L6.76147068,99.7675302 L6.76147068,105.921993 Z M5.33720358,107.352598 L17.4335041,107.352598 L17.4335041,98.3369253 L5.33720358,98.3369253 L5.33720358,107.352598 Z" id="Fill-63" fill="#48443E" mask="url(#mask-6)"></path>
                    <path d="M22.3966002,105.921993 L31.6443664,105.921993 L31.6443664,99.7675302 L22.3966002,99.7675302 L22.3966002,105.921993 Z M20.9723331,107.352598 L33.0686336,107.352598 L33.0686336,98.3369253 L20.9723331,98.3369253 L20.9723331,107.352598 Z" id="Fill-64" fill="#48443E" mask="url(#mask-6)"></path>
                    <path d="M38.0312549,105.921993 L47.2785464,105.921993 L47.2785464,99.7675302 L38.0312549,99.7675302 L38.0312549,105.921993 Z M36.6069878,107.352598 L48.7028135,107.352598 L48.7028135,98.3369253 L36.6069878,98.3369253 L36.6069878,107.352598 Z" id="Fill-65" fill="#48443E" mask="url(#mask-6)"></path>
                    <path d="M6.76147068,116.352534 L16.009237,116.352534 L16.009237,110.197117 L6.76147068,110.197117 L6.76147068,116.352534 Z M5.33720358,117.783616 L17.4335041,117.783616 L17.4335041,108.766989 L5.33720358,108.766989 L5.33720358,117.783616 Z" id="Fill-66" fill="#48443E" mask="url(#mask-6)"></path>
                    <path d="M22.3966002,116.352534 L31.6443664,116.352534 L31.6443664,110.197117 L22.3966002,110.197117 L22.3966002,116.352534 Z M20.9723331,117.783616 L33.0686336,117.783616 L33.0686336,108.766989 L20.9723331,108.766989 L20.9723331,117.783616 Z" id="Fill-67" fill="#48443E" mask="url(#mask-6)"></path>
                    <path d="M38.0312549,116.352534 L47.2785464,116.352534 L47.2785464,110.197117 L38.0312549,110.197117 L38.0312549,116.352534 Z M36.6069878,117.783616 L48.7028135,117.783616 L48.7028135,108.766989 L36.6069878,108.766989 L36.6069878,117.783616 Z" id="Fill-68" fill="#48443E" mask="url(#mask-6)"></path>
                    <path d="M175.371765,131.83888 L172.838468,131.83888 L172.838468,124.640076 L159.874314,124.640076 L159.874314,131.83888 L157.033376,131.83888 L157.033376,43.711706 L175.371765,43.711706 L175.371765,131.83888 Z M161.299056,131.83888 L165.64402,131.83888 L165.64402,126.070681 L161.299056,126.070681 L161.299056,131.83888 Z M167.068288,131.83888 L171.414201,131.83888 L171.414201,126.070681 L167.068288,126.070681 L167.068288,131.83888 Z M148.045776,131.83888 L155.609109,131.83888 L155.609109,43.711706 L148.045776,43.711706 L148.045776,131.83888 Z M142.141714,131.83888 L146.621984,131.83888 L146.621984,43.711706 L142.141714,43.711706 L142.141714,131.83888 Z M176.796032,42.2811011 L157.033376,42.2811011 L146.621509,42.2811011 L140.717447,42.2811011 L140.717447,133.269485 L146.621509,133.269485 L157.033376,133.269485 L159.874314,133.269485 L172.838468,133.269485 L176.796032,133.269485 L176.796032,42.2811011 Z" id="Fill-69" fill="#48443E" mask="url(#mask-6)"></path>
                    <path d="M162.421046,51.9080712 L170.292496,51.9080712 L170.292496,46.6677651 L162.421046,46.6677651 L162.421046,51.9080712 Z M160.996779,53.3386762 L171.716763,53.3386762 L171.716763,45.2371601 L160.996779,45.2371601 L160.996779,53.3386762 Z" id="Fill-70" fill="#48443E" mask="url(#mask-6)"></path>
                    <path d="M162.421046,63.2494306 L170.292496,63.2494306 L170.292496,58.007694 L162.421046,58.007694 L162.421046,63.2494306 Z M160.996779,64.6800356 L171.716763,64.6800356 L171.716763,56.577089 L160.996779,56.577089 L160.996779,64.6800356 Z" id="Fill-71" fill="#48443E" mask="url(#mask-6)"></path>
                    <path d="M162.421046,74.5903132 L170.292496,74.5903132 L170.292496,69.3485765 L162.421046,69.3485765 L162.421046,74.5903132 Z M160.996779,76.0209181 L171.716763,76.0209181 L171.716763,67.9179715 L160.996779,67.9179715 L160.996779,76.0209181 Z" id="Fill-72" fill="#48443E" mask="url(#mask-6)"></path>
                    <path d="M162.421046,85.9307189 L170.292496,85.9307189 L170.292496,80.6908897 L162.421046,80.6908897 L162.421046,85.9307189 Z M160.996779,87.360847 L171.716763,87.360847 L171.716763,79.2598078 L160.996779,79.2598078 L160.996779,87.360847 Z" id="Fill-73" fill="#48443E" mask="url(#mask-6)"></path>
                    <path d="M162.421046,97.2720783 L170.292496,97.2720783 L170.292496,92.0308185 L162.421046,92.0308185 L162.421046,97.2720783 Z M160.996779,98.7026833 L171.716763,98.7026833 L171.716763,90.6002135 L160.996779,90.6002135 L160.996779,98.7026833 Z" id="Fill-74" fill="#48443E" mask="url(#mask-6)"></path>
                    <path d="M162.421046,108.612484 L170.292496,108.612484 L170.292496,103.372178 L162.421046,103.372178 L162.421046,108.612484 Z M160.996779,110.043089 L171.716763,110.043089 L171.716763,101.941573 L160.996779,101.941573 L160.996779,110.043089 Z" id="Fill-75" fill="#48443E" mask="url(#mask-6)"></path>
                    <path d="M162.421046,119.953367 L170.292496,119.953367 L170.292496,114.712584 L162.421046,114.712584 L162.421046,119.953367 Z M160.996779,121.383972 L171.716763,121.383972 L171.716763,113.281979 L160.996779,113.281979 L160.996779,121.383972 Z" id="Fill-76" fill="#48443E" mask="url(#mask-6)"></path>
                    <path d="M244.592238,59.9266121 L299.697132,59.9266121 L299.697132,54.744484 L244.592238,54.744484 L244.592238,59.9266121 Z M244.592713,131.922285 L299.697607,131.922285 L299.697607,61.4773879 L244.592713,61.4773879 L244.592713,131.922285 Z M243.167971,53.313879 L243.167971,59.9266121 L243.167971,61.4773879 L243.167971,133.35289 L301.121874,133.35289 L301.121874,61.4773879 L301.121874,59.9266121 L301.121874,53.313879 L243.167971,53.313879 Z" id="Fill-77" fill="#48443E" mask="url(#mask-6)"></path>
                    <path d="M272.858243,132.31284 L292.597635,132.31284 L292.597635,121.470762 L272.858243,121.470762 L272.858243,132.31284 Z M251.542661,132.31284 L271.433501,132.31284 L271.433501,121.470762 L251.542661,121.470762 L251.542661,132.31284 Z M250.118394,133.266577 L294.021902,133.266577 L294.021902,120.040157 L250.118394,120.040157 L250.118394,133.266577 Z" id="Fill-78" fill="#48443E" mask="url(#mask-6)"></path>
                    <path d="M249.866299,72.4405907 L250.697121,72.4405907 L250.697121,66.2947117 L249.866299,66.2947117 L249.866299,72.4405907 Z M252.121388,72.4405907 L258.571419,72.4405907 L258.571419,66.2947117 L252.121388,66.2947117 L252.121388,72.4405907 Z M248.442032,73.8711957 L259.995686,73.8711957 L259.995686,64.8641068 L248.442032,64.8641068 L248.442032,73.8711957 Z" id="Fill-79" fill="#48443E" mask="url(#mask-6)"></path>
                    <path d="M267.572313,72.4405907 L268.40361,72.4405907 L268.40361,66.2947117 L267.572313,66.2947117 L267.572313,72.4405907 Z M269.827877,72.4405907 L276.277433,72.4405907 L276.277433,66.2947117 L269.827877,66.2947117 L269.827877,72.4405907 Z M266.148046,73.8711957 L277.7017,73.8711957 L277.7017,64.8641068 L266.148046,64.8641068 L266.148046,73.8711957 Z" id="Fill-80" fill="#48443E" mask="url(#mask-6)"></path>
                    <path d="M287.533891,72.4405907 L293.982972,72.4405907 L293.982972,66.2947117 L287.533891,66.2947117 L287.533891,72.4405907 Z M285.277852,72.4405907 L286.109624,72.4405907 L286.109624,66.2947117 L285.277852,66.2947117 L285.277852,72.4405907 Z M283.853585,73.8711957 L295.407239,73.8711957 L295.407239,64.8641068 L283.853585,64.8641068 L283.853585,73.8711957 Z" id="Fill-81" fill="#48443E" mask="url(#mask-6)"></path>
                    <path d="M249.866299,86.6279004 L250.697121,86.6279004 L250.697121,80.4815445 L249.866299,80.4815445 L249.866299,86.6279004 Z M252.121388,86.6279004 L258.571419,86.6279004 L258.571419,80.4815445 L252.121388,80.4815445 L252.121388,86.6279004 Z M248.442032,88.0585053 L259.995686,88.0585053 L259.995686,79.0509395 L248.442032,79.0509395 L248.442032,88.0585053 Z" id="Fill-82" fill="#48443E" mask="url(#mask-6)"></path>
                    <path d="M267.572313,86.6279004 L268.40361,86.6279004 L268.40361,80.4815445 L267.572313,80.4815445 L267.572313,86.6279004 Z M269.827877,86.6279004 L276.277433,86.6279004 L276.277433,80.4815445 L269.827877,80.4815445 L269.827877,86.6279004 Z M266.148046,88.0585053 L277.7017,88.0585053 L277.7017,79.0509395 L266.148046,79.0509395 L266.148046,88.0585053 Z" id="Fill-83" fill="#48443E" mask="url(#mask-6)"></path>
                    <path d="M285.277852,86.6279004 L286.109624,86.6279004 L286.109624,80.4815445 L285.277852,80.4815445 L285.277852,86.6279004 Z M287.533891,86.6279004 L293.982972,86.6279004 L293.982972,80.4815445 L287.533891,80.4815445 L287.533891,86.6279004 Z M283.853585,88.0585053 L295.407239,88.0585053 L295.407239,79.0509395 L283.853585,79.0509395 L283.853585,88.0585053 Z" id="Fill-84" fill="#48443E" mask="url(#mask-6)"></path>
                    <path d="M249.866299,100.816164 L250.697121,100.816164 L250.697121,94.6688541 L249.866299,94.6688541 L249.866299,100.816164 Z M252.121388,100.816164 L258.571419,100.816164 L258.571419,94.6688541 L252.121388,94.6688541 L252.121388,100.816164 Z M248.442032,102.246292 L259.995686,102.246292 L259.995686,93.2377722 L248.442032,93.2377722 L248.442032,102.246292 Z" id="Fill-85" fill="#48443E" mask="url(#mask-6)"></path>
                    <path d="M267.572313,100.816164 L268.40361,100.816164 L268.40361,94.6688541 L267.572313,94.6688541 L267.572313,100.816164 Z M269.827877,100.816164 L276.277433,100.816164 L276.277433,94.6688541 L269.827877,94.6688541 L269.827877,100.816164 Z M266.148046,102.246292 L277.7017,102.246292 L277.7017,93.2377722 L266.148046,93.2377722 L266.148046,102.246292 Z" id="Fill-86" fill="#48443E" mask="url(#mask-6)"></path>
                    <path d="M285.277852,100.816164 L286.109624,100.816164 L286.109624,94.6688541 L285.277852,94.6688541 L285.277852,100.816164 Z M287.533891,100.816164 L293.982972,100.816164 L293.982972,94.6688541 L287.533891,94.6688541 L287.533891,100.816164 Z M283.853585,102.246292 L295.407239,102.246292 L295.407239,93.2377722 L283.853585,93.2377722 L283.853585,102.246292 Z" id="Fill-87" fill="#48443E" mask="url(#mask-6)"></path>
                    <path d="M249.866299,115.003473 L250.697121,115.003473 L250.697121,108.857117 L249.866299,108.857117 L249.866299,115.003473 Z M252.121388,115.003473 L258.571419,115.003473 L258.571419,108.857117 L252.121388,108.857117 L252.121388,115.003473 Z M248.442032,116.433601 L259.995686,116.433601 L259.995686,107.426036 L248.442032,107.426036 L248.442032,116.433601 Z" id="Fill-88" fill="#48443E" mask="url(#mask-6)"></path>
                    <path d="M267.572313,115.003473 L268.40361,115.003473 L268.40361,108.857117 L267.572313,108.857117 L267.572313,115.003473 Z M269.827877,115.003473 L276.277433,115.003473 L276.277433,108.857117 L269.827877,108.857117 L269.827877,115.003473 Z M266.148046,116.433601 L277.7017,116.433601 L277.7017,107.426036 L266.148046,107.426036 L266.148046,116.433601 Z" id="Fill-89" fill="#48443E" mask="url(#mask-6)"></path>
                    <path d="M285.277852,115.003473 L286.109624,115.003473 L286.109624,108.857117 L285.277852,108.857117 L285.277852,115.003473 Z M287.533891,115.003473 L293.982972,115.003473 L293.982972,108.857117 L287.533891,108.857117 L287.533891,115.003473 Z M283.853585,116.433601 L295.407239,116.433601 L295.407239,107.426036 L283.853585,107.426036 L283.853585,116.433601 Z" id="Fill-90" fill="#48443E" mask="url(#mask-6)"></path>
                    <path d="M253.533787,53.288605 L271.433976,53.288605 L271.433976,48.1160142 L253.533787,48.1160142 L253.533787,53.288605 Z M270.879936,46.6858861 L270.879936,36.3097082 L269.455669,36.3097082 L269.455669,46.6858861 L267.804468,46.6858861 L267.804468,40.6153523 L266.380201,40.6153523 L266.380201,46.6858861 L252.109045,46.6858861 L252.109045,54.71921 L272.858243,54.71921 L272.858243,46.6858861 L270.879936,46.6858861 Z" id="Fill-91" fill="#48443E" mask="url(#mask-6)"></path>
                    <path d="M383.47333,92.8670071 C383.47333,98.0128932 379.232812,102.19932 374.020944,102.19932 L371.712682,102.202658 C370.292687,102.205043 368.531344,102.207427 366.757656,102.207427 C363.023703,102.207427 360.593903,102.195505 359.330104,102.168324 C353.897949,102.052445 349.553934,98.173121 349.646037,93.5227011 C349.715351,90.2513843 352.018391,87.2933701 355.514492,85.9853203 L356.21808,85.7230427 L355.919459,85.030153 C355.58618,84.2585801 355.417167,83.4469502 355.417167,82.6200605 C355.417167,80.2576548 356.794433,78.1041174 358.925612,77.1355979 L359.373306,76.9314982 L359.342922,76.4388932 C359.331528,76.2605445 359.324881,76.0793345 359.324881,75.8981246 C359.324881,73.6334769 364.494021,72.1132206 369.322287,72.1132206 C373.157363,72.1132206 376.108919,73.0502669 376.340125,74.3421032 L376.445046,74.9305587 L377.156705,74.9291281 C380.883538,74.9291281 383.915802,78.0015907 383.915802,81.7774342 C383.915802,83.6314982 383.197972,85.3658683 381.894767,86.6610427 L381.467962,87.0849786 L381.81216,87.5794911 C382.898875,89.1398043 383.47333,90.9685943 383.47333,92.8670071 M385.340069,81.7774342 C385.340069,77.3511423 381.888595,73.7245587 377.56547,73.5090142 C376.411339,70.8972064 371.03568,70.6826157 369.322287,70.6826157 C363.646582,70.6826157 357.900614,72.47421 357.900614,75.8981246 C357.900614,75.9481957 357.901089,75.99779 357.902038,76.0483381 C355.512118,77.3330214 353.9929,79.8609004 353.9929,82.6200605 C353.9929,83.4011708 354.114437,84.1713132 354.355139,84.9152278 C350.682428,86.5461174 348.29868,89.8460463 348.22177,93.4926584 C348.114,98.9322954 353.083268,103.465406 359.299719,103.598929 C360.526013,103.624203 362.83475,103.637555 366.343195,103.638032 L366.343195,132.528623 C366.343195,132.92347 366.662231,133.243925 367.055328,133.243925 C367.448426,133.243925 367.767462,132.92347 367.767462,132.528623 L367.767462,103.638032 C369.190779,103.637555 370.565197,103.635171 371.714581,103.633263 L374.020944,103.629925 C380.018533,103.629925 384.897597,98.8016335 384.897597,92.8670071 C384.897597,90.868452 384.347355,88.938089 383.300519,87.2475907 C384.619865,85.7378256 385.340069,83.8165231 385.340069,81.7774342" id="Fill-92" fill="#48443E" mask="url(#mask-6)"></path>
                    <path d="M343.835882,80.7487815 C341.342465,80.7487815 339.313833,78.7116 339.313833,76.2066107 C339.313833,75.806995 339.370804,75.4207317 339.467654,75.0511587 L348.205058,75.0511587 C348.301908,75.4207317 348.358879,75.806995 348.358879,76.2066107 C348.358879,78.7116 346.329773,80.7487815 343.835882,80.7487815 M343.835882,71.6644399 C345.372666,71.6644399 346.731417,72.4403046 347.548946,73.6205537 L340.123767,73.6205537 C340.940821,72.4403046 342.299572,71.6644399 343.835882,71.6644399 M319.159504,73.6205537 L311.7348,73.6205537 C312.552329,72.4403046 313.91108,71.6644399 315.447864,71.6644399 C316.984174,71.6644399 318.34245,72.4403046 319.159504,73.6205537 M315.447864,80.7487815 C312.953973,80.7487815 310.924867,78.7116 310.924867,76.2066107 C310.924867,75.806995 310.981838,75.4207317 311.078688,75.0511587 L319.815142,75.0511587 C319.911992,75.4207317 319.969438,75.806995 319.969438,76.2066107 C319.969438,78.7116 317.940807,80.7487815 315.447864,80.7487815 M331.657448,117.73612 L331.657448,131.705977 C331.635135,131.7117 331.606649,131.716945 331.572942,131.716945 L327.711754,131.716945 C327.677571,131.716945 327.648611,131.7117 327.626298,131.7055 L327.626298,117.736596 C327.648611,117.730874 327.677571,117.725628 327.711754,117.725628 L331.572942,117.725628 C331.606649,117.725628 331.635135,117.730874 331.657448,117.73612 M344.525702,70.2777068 L344.525702,68.277721 C344.525702,67.882874 344.206666,67.5624185 343.813568,67.5624185 C343.707223,67.5624185 343.607049,67.5867388 343.515896,67.6296569 L337.42668,67.6296569 C337.221585,67.6296569 337.038329,67.7178776 336.908246,67.8571231 C336.902549,67.8628456 336.895428,67.8633224 336.890206,67.868568 L329.642585,74.6544043 L322.39354,67.868568 C322.388793,67.8633224 322.382621,67.8633224 322.377399,67.8590306 C322.247316,67.7183544 322.06406,67.6296569 321.858016,67.6296569 L315.76785,67.6296569 C315.676697,67.5867388 315.576998,67.5624185 315.470178,67.5624185 C315.07708,67.5624185 314.758044,67.882874 314.758044,68.277721 L314.758044,70.2777068 C311.80269,70.6229594 309.5006,73.1484541 309.5006,76.2066107 C309.5006,79.5003402 312.168727,82.1793865 315.447864,82.1793865 C318.726053,82.1793865 321.393705,79.5003402 321.393705,76.2066107 C321.393705,73.1637139 319.114877,70.6501409 316.182311,70.2848598 L316.182311,69.0602619 L321.577435,69.0602619 L328.929502,75.9433794 L328.929502,116.295023 L327.711754,116.295023 C326.865264,116.295023 326.202031,116.869173 326.202031,117.600689 L326.202031,131.842362 C326.202031,132.574354 326.865264,133.14755 327.711754,133.14755 L331.572942,133.14755 C332.418956,133.14755 333.081715,132.574354 333.081715,131.842362 L333.081715,117.600689 C333.081715,116.869173 332.418956,116.295023 331.572942,116.295023 L330.353769,116.295023 L330.353769,75.9443331 L337.706311,69.0602619 L343.101434,69.0602619 L343.101434,70.2848598 C340.168394,70.6501409 337.889566,73.1637139 337.889566,76.2066107 C337.889566,79.5003402 340.557219,82.1793865 343.835882,82.1793865 C347.115019,82.1793865 349.783146,79.5003402 349.783146,76.2066107 C349.783146,73.1484541 347.481056,70.6229594 344.525702,70.2777068" id="Fill-93" fill="#48443E" mask="url(#mask-6)"></path>
                    <polygon id="Fill-94" fill="#50E3B3" mask="url(#mask-6)" points="397.166139 110.703504 400.583905 108.034949 395.921804 99.8461658 398.408575 97.1723651 389.082474 84.4342584 379.758746 97.1723651 382.246466 99.8461658 377.584365 108.034949 381.00498 110.703504 375.410934 120.496472 389.082474 120.496472 402.758286 120.496472"></polygon>
                    <path d="M381.930849,110.520005 L378.509284,107.850496 L383.125809,99.7432577 L380.682716,97.1176206 L389.082094,85.6422612 L397.484795,97.1176206 L395.042652,99.7432577 L399.659176,107.850496 L396.240935,110.520005 L401.528764,119.781265 L376.640171,119.781265 L381.930849,110.520005 Z M403.987998,121.21187 L398.092007,110.886717 L401.508824,108.218638 L396.800672,99.9487879 L399.332544,97.2263466 L389.082094,83.2274 L378.834967,97.2263466 L381.367314,99.9487879 L376.659161,108.218638 L380.079301,110.886717 L374.181411,121.21187 L388.36996,121.21187 L388.36996,131.594247 C388.36996,131.989571 388.688996,132.309549 389.082094,132.309549 C389.475666,132.309549 389.794227,131.989571 389.794227,131.594247 L389.794227,121.21187 L403.987998,121.21187 Z" id="Fill-95" fill="#48443E" mask="url(#mask-6)"></path>
                    <path d="M121.286741,97.5020719 L121.286741,91.5312036 L126.432618,81.4401929 C126.612075,81.0887409 126.473447,80.6586057 126.123552,80.4783495 C125.773182,80.2976164 125.344478,80.4363851 125.16502,80.7883139 L121.286741,88.39341 L121.286741,71.8847053 C121.286741,71.4893815 120.967705,71.1694028 120.574607,71.1694028 C120.181035,71.1694028 119.862474,71.4893815 119.862474,71.8847053 L119.862474,88.6924064 L115.832747,80.7883139 C115.65329,80.4368619 115.224111,80.2976164 114.874216,80.4783495 C114.524321,80.6586057 114.385692,81.0887409 114.56515,81.4401929 L119.862474,91.8306769 L119.862474,97.6217658 C114.337742,97.5759865 110.334602,91.3938655 110.334602,82.8865345 C110.334602,75.4488192 118.125343,65.6873246 120.225662,63.1918726 C122.421882,65.6634811 130.663166,75.4392819 130.663166,82.8865345 C130.663166,90.3790897 126.566499,96.5798085 121.286741,97.5020719 M132.087433,82.8865345 C132.087433,73.7740577 121.19179,62.1131964 120.727953,61.6220221 C120.591224,61.4770541 120.406069,61.3936021 120.201449,61.397894 C120.003001,61.401232 119.814049,61.4870683 119.681117,61.6358512 C119.241018,62.1270256 108.910334,73.7845488 108.910334,82.8865345 C108.910334,92.2245701 113.512616,99.0084989 119.862474,99.0533246 L119.862474,132.165631 C119.862474,132.560478 120.181035,132.880933 120.574607,132.880933 C120.967705,132.880933 121.286741,132.560478 121.286741,132.165631 L121.286741,98.9507979 C127.354119,98.0476093 132.087433,91.1897658 132.087433,82.8865345" id="Fill-96" fill="#48443E" mask="url(#mask-6)"></path>
                    <path d="M117.84894,88.177484 C117.84894,97.3514769 110.81401,104.79253 102.137849,104.79253 C93.4626385,104.79253 86.4296076,97.3514769 86.4296076,88.177484 C86.4296076,79.0015836 93.4626385,71.5610071 102.137849,71.5610071 C110.81401,71.5610071 117.84894,79.0015836 117.84894,88.177484" id="Fill-97" fill="#50E3B3" mask="url(#mask-6)"></path>
                    <path d="M102.601116,104.064591 L102.601116,100.014071 L108.949075,91.2334947 C109.179806,90.913516 109.109542,90.4662135 108.791456,90.2339786 C108.472895,90.0012669 108.027574,90.073274 107.796368,90.3922989 L102.601116,97.5782278 L102.601116,85.8048256 C102.601116,85.4099786 102.28208,85.0895231 101.888982,85.0895231 C101.49541,85.0895231 101.176849,85.4099786 101.176849,85.8048256 L101.176849,97.5782278 L95.9815973,90.3922989 C95.7503913,90.073274 95.3050704,90.0012669 94.9865094,90.2339786 C94.668423,90.4662135 94.5976844,90.913516 94.8284157,91.2334947 L101.176849,100.014071 L101.176849,104.040747 C93.3542993,103.512854 87.1416462,96.6020783 87.1416462,88.1777224 C87.1416462,79.4095445 93.8689344,72.276548 102.137754,72.276548 C110.408474,72.276548 117.136711,79.4095445 117.136711,88.1777224 C117.136711,96.7794733 110.65772,103.803267 102.601116,104.064591 M118.560978,88.1777224 C118.560978,78.6208043 111.193719,70.8459431 102.137754,70.8459431 C93.0836885,70.8459431 85.7173791,78.6208043 85.7173791,88.1777224 C85.7173791,97.392726 92.5685786,104.948228 101.176849,105.475644 L101.176849,131.957096 C101.176849,132.351466 101.49541,132.672399 101.888982,132.672399 C102.28208,132.672399 102.601116,132.351466 102.601116,131.957096 L102.601116,105.495196 C111.442966,105.234826 118.560978,97.5696441 118.560978,88.1777224" id="Fill-98" fill="#48443E" mask="url(#mask-6)"></path>
                    <path d="M126.746859,132.251991 C125.954966,132.502347 125.105628,132.639209 124.219259,132.639209 L110.009821,132.639209 C105.734646,132.639209 102.269404,129.469942 102.269404,125.559621 C102.269404,121.650255 105.734646,118.480511 110.009821,118.480511 C110.850614,118.480511 111.658648,118.604974 112.416833,118.830532 C113.081491,115.539664 116.233868,113.046596 120.025267,113.046596 C123.970962,113.046596 127.227311,115.748532 127.703966,119.239209 C129.483825,120.062283 130.871061,121.492888 131.533346,123.233935 L126.746859,132.251991 Z" id="Fill-99" fill="#C2F5E5" mask="url(#mask-6)"></path>
                    <path d="M124.219164,133.354273 L110.009726,133.354273 C105.34905,133.354273 101.55765,129.857397 101.55765,125.559383 C101.55765,121.262322 105.34905,117.765447 110.009726,117.765447 C110.649222,117.765447 111.283971,117.832209 111.904951,117.963824 C112.932797,114.659127 116.228076,112.331056 120.025172,112.331056 C124.133234,112.331056 127.638355,115.067326 128.346216,118.758287 C130.152186,119.689134 131.512361,121.175532 132.198858,122.979048 C132.338911,123.348144 132.154706,123.761589 131.787245,123.902742 C131.420734,124.044372 131.008646,123.857917 130.868118,123.489298 C130.281795,121.947582 129.019419,120.634764 127.405725,119.888942 C127.184963,119.786415 127.031142,119.577547 126.998384,119.336251 C126.563983,116.157447 123.566375,113.76166 120.025172,113.76166 C116.630669,113.76166 113.72469,115.953347 113.115103,118.973354 C113.074749,119.170301 112.955111,119.34102 112.783724,119.4445 C112.612812,119.547504 112.405818,119.573732 112.214017,119.516031 C111.501409,119.304301 110.759365,119.196052 110.009726,119.196052 C106.13477,119.196052 102.981918,122.051063 102.981918,125.559383 C102.981918,129.068657 106.13477,131.923668 110.009726,131.923668 L124.219164,131.923668 C125.011532,131.923668 125.790606,131.804927 126.533124,131.570308 C126.908181,131.453475 127.3084,131.660436 127.426139,132.037639 C127.543879,132.414842 127.335461,132.816365 126.959929,132.934152 C126.078782,133.21312 125.156807,133.354273 124.219164,133.354273" id="Fill-100" fill="#48443E" mask="url(#mask-6)"></path>
                    <path d="M128.408076,125.280081 C128.83868,125.280081 129.254091,125.343981 129.643865,125.460814 C129.98379,123.769839 131.602707,122.489925 133.549206,122.489925 C135.573564,122.489925 137.244704,123.877135 137.490153,125.668252 C138.784812,126.266722 139.674504,127.495611 139.674504,128.913341 C139.674504,130.919049 137.896069,132.547554 135.701273,132.547554 L128.408076,132.547554 C126.213281,132.547554 124.434846,130.919049 124.434846,128.913341 C124.434846,126.907156 126.213281,125.280081 128.408076,125.280081" id="Fill-101" fill="#C2F5E5" mask="url(#mask-6)"></path>
                    <path d="M128.408076,125.995384 C126.609702,125.995384 125.146979,127.304387 125.146979,128.913341 C125.146979,130.522772 126.609702,131.832252 128.408076,131.832252 L135.701273,131.832252 C137.499173,131.832252 138.96237,130.522772 138.96237,128.913341 C138.96237,127.817021 138.284419,126.82275 137.192481,126.317747 C136.971245,126.215697 136.817899,126.007305 136.784666,125.765533 C136.584794,124.306316 135.19376,123.205227 133.549206,123.205227 C131.970168,123.205227 130.620913,124.213327 130.341282,125.601967 C130.301877,125.798914 130.181764,125.969633 130.010377,126.074067 C129.83899,126.177547 129.631522,126.203775 129.44067,126.146074 C129.106442,126.046409 128.758921,125.995384 128.408076,125.995384 M135.701273,133.262857 L128.408076,133.262857 C125.824456,133.262857 123.722712,131.311512 123.722712,128.913341 C123.722712,126.516124 125.824456,124.564779 128.408076,124.564779 C128.657798,124.564779 128.90657,124.583853 129.152018,124.620095 C129.818101,122.93532 131.559979,121.774622 133.549206,121.774622 C135.761567,121.774622 137.660115,123.217626 138.124901,125.19043 C139.529229,125.975355 140.386637,127.371626 140.386637,128.913341 C140.386637,131.311512 138.284894,133.262857 135.701273,133.262857" id="Fill-102" fill="#48443E" mask="url(#mask-6)"></path>
                    <path d="M394.521607,128.8678 C394.36019,128.878291 394.182157,128.885444 393.993204,128.885444 C392.905539,128.885444 392.064272,128.660839 391.49504,128.219259 C391.010789,127.844917 390.729259,127.31607 390.678935,126.692327 C390.665167,126.275544 390.650449,125.899772 390.635257,125.536398 C390.495679,121.883586 390.402627,119.470633 392.14498,119.36906 C392.979601,119.320419 393.40878,117.373366 393.78716,115.652825 C394.353544,113.083935 394.994464,110.1717 397.371091,109.386298 C399.206971,108.783537 401.707984,108.422547 404.061348,108.422547 C405.278622,108.422547 406.475006,108.51506 407.61442,108.698654 C410.05324,109.089686 412.250884,109.896547 414.147058,111.096825 C416.356571,112.497864 418.153522,114.434426 419.489959,116.856917 C419.67179,116.904127 420.07011,116.990441 420.93559,117.147807 C423.938895,117.690006 428.909112,118.585565 428.915284,122.268896 C428.915284,122.325167 428.919082,122.587444 428.924779,122.927451 L428.925729,122.996597 C428.955163,125.001828 428.962759,125.710932 428.953264,125.857807 C428.771908,128.795316 424.552754,128.795316 421.47064,128.795316 L421.106977,128.794839 L394.521607,128.8678 Z" id="Fill-103" fill="#FFFFFF" mask="url(#mask-6)"></path>
                    <path d="M393.993062,129.600794 C392.743979,129.600794 391.757437,129.326595 391.059546,128.785349 C390.422424,128.293698 390.035023,127.569335 389.969032,126.749122 C389.953365,126.301819 389.938648,125.927954 389.923931,125.565535 C389.773908,121.656168 389.665663,118.828339 392.064604,118.65762 C392.46055,118.367684 392.885931,116.435414 393.091975,115.498367 C393.670228,112.875591 394.389008,109.619058 397.148288,108.707285 C399.053483,108.08068 401.637578,107.707293 404.061206,107.707293 C405.320258,107.707293 406.553673,107.803143 407.727269,107.991983 C410.26199,108.398752 412.549838,109.239947 414.52672,110.49268 C416.75285,111.903257 418.577811,113.832666 419.955552,116.229883 C420.176788,116.27757 420.522885,116.346239 421.062682,116.443997 C424.264909,117.021962 429.620154,117.988097 429.62775,122.267513 C429.62775,122.324737 429.631073,122.581769 429.63677,122.9151 L429.63772,122.987107 C429.671427,125.27989 429.673801,125.744837 429.664306,125.902204 C429.441171,129.510666 424.644714,129.510666 421.470497,129.510666 L421.105885,129.510189 L421.107784,128.079584 L421.471447,128.080061 C424.965174,128.080061 428.113279,127.906481 428.242887,125.813029 C428.251908,125.656616 428.234342,124.396253 428.213453,123.007136 L428.212503,122.937036 C428.206806,122.593214 428.203483,122.326645 428.203483,122.268944 C428.197786,119.185513 423.575564,118.35147 420.812961,117.852666 C420.069968,117.717712 419.565777,117.615663 419.310359,117.548901 L419.015061,117.471172 L418.866937,117.203172 C417.589844,114.887976 415.874077,113.037727 413.766637,111.702495 C411.953545,110.554196 409.846104,109.780716 407.502235,109.404467 C406.402701,109.227549 405.245246,109.137898 404.061206,109.137898 C401.779055,109.137898 399.361124,109.485058 397.592659,110.06636 C395.604382,110.723485 395.009039,113.421129 394.483959,115.801656 C394.007779,117.964253 393.560084,120.002389 392.186616,120.083456 C391.190104,120.141634 391.215741,122.082011 391.347248,125.506403 C391.361966,125.872638 391.376683,126.249841 391.390926,126.667577 C391.423209,127.059563 391.60504,127.401954 391.928824,127.65231 C392.366074,127.991364 393.079632,128.170189 393.993062,128.170189 C394.165398,128.170189 394.327764,128.163036 394.474939,128.153499 L394.568466,129.58172 C394.392806,129.593164 394.199106,129.600794 393.993062,129.600794" id="Fill-104" fill="#48443E" mask="url(#mask-6)"></path>
                    <path d="M398.823179,125.073311 C396.777456,125.073311 395.112488,126.744735 395.112488,128.800037 C395.112488,130.85534 396.777456,132.52867 398.823179,132.52867 C400.870325,132.52867 402.533869,130.85534 402.533869,128.800037 C402.533869,126.744735 400.870325,125.073311 398.823179,125.073311" id="Fill-105" fill="#FFFFFF" mask="url(#mask-6)"></path>
                    <path d="M398.823179,125.788614 C397.170079,125.788614 395.824622,127.139581 395.824622,128.800037 C395.824622,130.461923 397.170079,131.813368 398.823179,131.813368 C400.476278,131.813368 401.821736,130.461923 401.821736,128.800037 C401.821736,127.139581 400.476278,125.788614 398.823179,125.788614 M398.823179,133.243973 C396.384359,133.243973 394.400355,131.250186 394.400355,128.800037 C394.400355,126.350841 396.384359,124.358009 398.823179,124.358009 C401.261999,124.358009 403.246003,126.350841 403.246003,128.800037 C403.246003,131.250186 401.261999,133.243973 398.823179,133.243973" id="Fill-106" fill="#48443E" mask="url(#mask-6)"></path>
                    <path d="M417.499973,125.073311 C415.454251,125.073311 413.789282,126.744735 413.789282,128.800037 C413.789282,130.85534 415.454251,132.52867 417.499973,132.52867 C419.54712,132.52867 421.212563,130.85534 421.212563,128.800037 C421.212563,126.744735 419.54712,125.073311 417.499973,125.073311" id="Fill-107" fill="#FFFFFF" mask="url(#mask-6)"></path>
                    <path d="M417.499973,125.788614 C415.846874,125.788614 414.501416,127.139581 414.501416,128.800037 C414.501416,130.461923 415.846874,131.813368 417.499973,131.813368 C419.154497,131.813368 420.500429,130.461923 420.500429,128.800037 C420.500429,127.139581 419.154497,125.788614 417.499973,125.788614 M417.499973,133.243973 C415.061153,133.243973 413.077149,131.250186 413.077149,128.800037 C413.077149,126.350841 415.061153,124.358009 417.499973,124.358009 C419.940217,124.358009 421.924696,126.350841 421.924696,128.800037 C421.924696,131.250186 419.940217,133.243973 417.499973,133.243973" id="Fill-108" fill="#48443E" mask="url(#mask-6)"></path>
                    <path d="M414.114538,128.778816 L402.929768,128.778816" id="Fill-109" fill="#FFFFFF" mask="url(#mask-6)"></path>
                    <path d="M406.403508,118.051186 L406.403508,112.994952 C406.42867,112.996382 406.451933,112.996859 406.47662,112.99829 C408.707972,113.121322 410.806392,113.689749 412.386854,114.598183 C414.006721,115.529507 415.005132,116.778902 415.198357,118.117471 L415.218772,118.25624 L406.403508,118.051186 Z M397.520354,117.714994 C397.684145,116.137037 398.305125,115.029749 399.474923,114.230994 C400.713561,113.385507 402.516683,112.970154 404.979241,112.959186 L404.979241,118.017806 L397.507061,117.842795 L397.520354,117.714994 Z M416.607907,117.911464 C416.350115,116.128453 415.102457,114.510439 413.09424,113.355941 C411.3253,112.338781 409.002795,111.704546 406.554006,111.570069 C406.03035,111.541934 405.530907,111.526674 405.069919,111.526674 C402.264113,111.526674 400.172339,112.025001 398.674485,113.048361 C397.152418,114.087457 396.311151,115.565272 396.103683,117.565735 L395.928023,119.237635 L416.871396,119.726425 L416.607907,117.911464 Z" id="Fill-110" fill="#48443E" mask="url(#mask-6)"></path>
                    <polygon id="Fill-111" fill="#48443E" mask="url(#mask-6)" points="402.92991 129.494071 414.11468 129.494071 414.11468 128.063466 402.92991 128.063466"></polygon>
                    <path d="M408.202357,121.299375 C407.80926,121.299375 407.490224,121.619831 407.490224,122.014678 C407.490224,122.409048 407.80926,122.72998 408.202357,122.72998 L411.322452,122.72998 C411.71555,122.72998 412.034585,122.409048 412.034585,122.014678 C412.034585,121.619831 411.71555,121.299375 411.322452,121.299375 L408.202357,121.299375 Z" id="Fill-112" fill="#48443E" mask="url(#mask-6)"></path>
                    <path d="M364.711222,122.183727 C364.712171,122.12698 364.718818,122.064987 364.718818,122.006809 C364.718818,120.248596 363.153549,118.827528 361.221768,118.827528 L359.910967,118.827528 C359.378766,116.888581 357.231921,115.437948 354.661593,115.437948 L352.474394,115.437948 C349.903117,115.437948 347.75912,116.888581 347.227869,118.827528 L344.112996,118.827528 C342.179791,118.827528 340.613572,120.248596 340.613572,122.006809 C340.613572,122.064987 340.620219,122.12698 340.624017,122.183727 C337.834827,122.78792 335.779135,124.834162 335.779135,127.265236 C335.779135,130.170318 338.710751,132.528432 342.325541,132.528432 L344.575883,132.528432 L360.759356,132.528432 L363.008748,132.528432 C366.623063,132.528432 369.557053,130.170318 369.557053,127.265236 C369.557053,124.834162 367.500412,122.78792 364.711222,122.183727" id="Fill-113" fill="#C2F5E5" mask="url(#mask-6)"></path>
                    <path d="M344.113139,119.542783 C342.576355,119.542783 341.325848,120.648164 341.325848,122.006762 C341.325848,122.031082 341.328697,122.055402 341.330596,122.080199 L341.374273,122.752584 L340.774182,122.883246 C338.25228,123.428306 336.490936,125.230868 336.490936,127.265189 C336.490936,129.772562 339.108264,131.813082 342.325209,131.813082 L363.00889,131.813082 C366.226785,131.813082 368.845062,129.772562 368.845062,127.265189 C368.845062,125.231822 367.083244,123.428306 364.560867,122.883246 L363.989736,122.758783 L364.006352,122.006762 C364.006352,120.648164 362.75727,119.542783 361.22191,119.542783 L359.368464,119.542783 L359.224138,119.016797 C358.768847,117.358249 356.849885,116.15368 354.661736,116.15368 L352.474061,116.15368 C350.286862,116.15368 348.369324,117.357772 347.914508,119.016797 L347.770182,119.542783 L344.113139,119.542783 Z M363.00889,133.243687 L342.325209,133.243687 C338.323018,133.243687 335.066669,130.561302 335.066669,127.265189 C335.066669,124.711082 337.03643,122.454541 339.921996,121.623359 C340.130413,119.654847 341.930687,118.112178 344.113139,118.112178 L346.720972,118.112178 C347.555592,116.091687 349.835844,114.723075 352.474061,114.723075 L354.661736,114.723075 C357.300903,114.723075 359.582104,116.091687 360.417674,118.112178 L361.22191,118.112178 C363.402463,118.112178 365.201312,119.654847 365.410205,121.621929 C368.298144,122.45311 370.269329,124.709651 370.269329,127.265189 C370.269329,130.561302 367.012031,133.243687 363.00889,133.243687 Z" id="Fill-114" fill="#48443E" mask="url(#mask-6)"></path>
                    <polygon id="Fill-115" fill="#FFFFFF" mask="url(#mask-6)" points="581.223037 52.2288936 581.223037 43.1712566 491.437714 43.1712566 491.437714 52.2288936 493.357151 52.2288936 493.357151 124.001869 491.437714 124.001869 491.437714 131.624132 581.223037 131.624132 581.223037 124.001869 579.304074 124.001869 579.304074 52.2288936"></polygon>
                    <path d="M522.758249,125.229089 L551.327148,125.229089 L551.327148,105.928798 L522.758249,105.928798 L522.758249,125.229089 Z M521.334457,126.659694 L552.75189,126.659694 L552.75189,104.498193 L521.334457,104.498193 L521.334457,126.659694 Z" id="Fill-116" fill="#48443E" mask="url(#mask-6)"></path>
                    <path d="M527.471149,112.392271 L546.615198,112.392271 L546.615198,109.014136 L527.471149,109.014136 L527.471149,112.392271 Z M526.046882,113.822876 L548.039465,113.822876 L548.039465,107.583531 L526.046882,107.583531 L526.046882,113.822876 Z" id="Fill-117" fill="#48443E" mask="url(#mask-6)"></path>
                    <path d="M527.471149,122.249139 L546.615198,122.249139 L546.615198,116.454235 L527.471149,116.454235 L527.471149,122.249139 Z M526.046882,123.679267 L548.039465,123.679267 L548.039465,115.023153 L526.046882,115.023153 L526.046882,123.679267 Z" id="Fill-118" fill="#48443E" mask="url(#mask-6)"></path>
                    <path d="M492.861933,131.62437 L581.222989,131.62437 L581.222989,126.685922 L492.861933,126.685922 L492.861933,131.62437 Z M494.811755,125.273438 L579.273643,125.273438 L579.273643,52.1599861 L494.811755,52.1599861 L494.811755,125.273438 Z M580.698384,125.273438 L580.698384,50.747979 L493.387488,50.747979 L493.387488,125.273438 L491.437666,125.273438 L491.437666,133.036378 L582.647257,133.036378 L582.647257,125.273438 L580.698384,125.273438 Z" id="Fill-119" fill="#48443E" mask="url(#mask-6)"></path>
                    <path d="M492.861933,50.747979 L581.222989,50.747979 L581.222989,44.3846481 L492.861933,44.3846481 L492.861933,50.747979 Z M491.437666,52.178584 L582.647257,52.178584 L582.647257,42.9540431 L491.437666,42.9540431 L491.437666,52.178584 Z" id="Fill-120" fill="#48443E" mask="url(#mask-6)"></path>
                    <path d="M555.562919,67.7068474 L573.636868,67.7068474 L573.636868,61.8852388 L555.562919,61.8852388 L555.562919,67.7068474 Z M555.563393,60.4546338 L573.637343,60.4546338 L573.637343,58.1351463 L555.563393,58.1351463 L555.563393,60.4546338 Z M554.138651,69.1374523 L575.061135,69.1374523 L575.061135,56.7045413 L554.138651,56.7045413 L554.138651,69.1374523 Z" id="Fill-121" fill="#48443E" mask="url(#mask-6)"></path>
                    <path d="M528.754414,67.7068474 L546.827414,67.7068474 L546.827414,61.8852388 L528.754414,61.8852388 L528.754414,67.7068474 Z M528.754414,60.4546338 L546.827414,60.4546338 L546.827414,58.1351463 L528.754414,58.1351463 L528.754414,60.4546338 Z M527.330147,69.1374523 L548.251681,69.1374523 L548.251681,56.7045413 L527.330147,56.7045413 L527.330147,69.1374523 Z" id="Fill-122" fill="#48443E" mask="url(#mask-6)"></path>
                    <path d="M501.946384,67.7068474 L520.018434,67.7068474 L520.018434,61.8852388 L501.946384,61.8852388 L501.946384,67.7068474 Z M501.946384,60.4546338 L520.018434,60.4546338 L520.018434,58.1351463 L501.946384,58.1351463 L501.946384,60.4546338 Z M500.522116,69.1374523 L521.442701,69.1374523 L521.442701,56.7045413 L500.522116,56.7045413 L500.522116,69.1374523 Z" id="Fill-123" fill="#48443E" mask="url(#mask-6)"></path>
                    <path d="M555.562919,83.4606694 L573.636868,83.4606694 L573.636868,77.4311463 L555.562919,77.4311463 L555.562919,83.4606694 Z M555.563393,76.0005413 L573.637343,76.0005413 L573.637343,73.8884915 L555.563393,73.8884915 L555.563393,76.0005413 Z M554.138651,84.8912744 L575.061135,84.8912744 L575.061135,72.4583634 L554.138651,72.4583634 L554.138651,84.8912744 Z" id="Fill-124" fill="#48443E" mask="url(#mask-6)"></path>
                    <path d="M528.754414,83.4606694 L546.827414,83.4606694 L546.827414,77.4311463 L528.754414,77.4311463 L528.754414,83.4606694 Z M528.754414,76.0005413 L546.827414,76.0005413 L546.827414,73.8884915 L528.754414,73.8884915 L528.754414,76.0005413 Z M527.330147,84.8912744 L548.251681,84.8912744 L548.251681,72.4583634 L527.330147,72.4583634 L527.330147,84.8912744 Z" id="Fill-125" fill="#48443E" mask="url(#mask-6)"></path>
                    <path d="M501.946384,83.4606694 L520.018434,83.4606694 L520.018434,77.4311463 L501.946384,77.4311463 L501.946384,83.4606694 Z M501.946384,76.0005413 L520.018434,76.0005413 L520.018434,73.8884915 L501.946384,73.8884915 L501.946384,76.0005413 Z M500.522116,84.8912744 L521.442701,84.8912744 L521.442701,72.4583634 L500.522116,72.4583634 L500.522116,84.8912744 Z" id="Fill-126" fill="#48443E" mask="url(#mask-6)"></path>
                    <path d="M555.562919,99.2140146 L573.636868,99.2140146 L573.636868,93.2269328 L555.562919,93.2269328 L555.562919,99.2140146 Z M555.563393,91.7963278 L573.637343,91.7963278 L573.637343,89.6423136 L555.563393,89.6423136 L555.563393,91.7963278 Z M554.138651,100.64462 L575.061135,100.64462 L575.061135,88.2121854 L554.138651,88.2121854 L554.138651,100.64462 Z" id="Fill-127" fill="#48443E" mask="url(#mask-6)"></path>
                    <path d="M528.754414,99.2140146 L546.827414,99.2140146 L546.827414,93.2269328 L528.754414,93.2269328 L528.754414,99.2140146 Z M528.754414,91.7963278 L546.827414,91.7963278 L546.827414,89.6423136 L528.754414,89.6423136 L528.754414,91.7963278 Z M527.330147,100.64462 L548.251681,100.64462 L548.251681,88.2121854 L527.330147,88.2121854 L527.330147,100.64462 Z" id="Fill-128" fill="#48443E" mask="url(#mask-6)"></path>
                    <path d="M501.946384,99.2140146 L520.018434,99.2140146 L520.018434,93.2269328 L501.946384,93.2269328 L501.946384,99.2140146 Z M501.946384,91.7963278 L520.018434,91.7963278 L520.018434,89.6423136 L501.946384,89.6423136 L501.946384,91.7963278 Z M500.522116,100.64462 L521.442701,100.64462 L521.442701,88.2121854 L500.522116,88.2121854 L500.522116,100.64462 Z" id="Fill-129" fill="#48443E" mask="url(#mask-6)"></path>
                    <polyline id="Fill-130" fill="#FFFFFF" mask="url(#mask-6)" points="446.453567 80.9457758 446.453567 130.920146 495.950646 130.920146 495.950646 80.9457758"></polyline>
                    <polygon id="Fill-131" fill="#48443E" mask="url(#mask-6)" points="496.662732 132.437796 445.741386 132.437796 445.741386 81.7481233 447.165653 81.7481233 447.165653 131.007191 495.238465 131.007191 495.238465 81.7481233 496.662732 81.7481233"></polygon>
                    <polygon id="Fill-132" fill="#FFFFFF" mask="url(#mask-6)" points="482.83082 127.684659 491.503657 127.684659 491.503657 85.7507653 482.83082 85.7507653"></polygon>
                    <path d="M483.542954,126.969356 L490.791524,126.969356 L490.791524,86.4660678 L483.542954,86.4660678 L483.542954,126.969356 Z M482.118686,128.399961 L492.215791,128.399961 L492.215791,85.0354628 L482.118686,85.0354628 L482.118686,128.399961 Z" id="Fill-133" fill="#48443E" mask="url(#mask-6)"></path>
                    <path d="M468.875376,94.0497048 L477.449939,94.0497048 L477.449939,85.4970714 L468.875376,85.4970714 L468.875376,94.0497048 Z M467.451109,95.4803098 L478.874206,95.4803098 L478.874206,84.0664664 L467.451109,84.0664664 L467.451109,95.4803098 Z" id="Fill-134" fill="#48443E" mask="url(#mask-6)"></path>
                    <path d="M453.310511,94.0501817 L461.885548,94.0501817 L461.885548,85.4975482 L453.310511,85.4975482 L453.310511,94.0501817 Z M451.886243,95.4803098 L463.309815,95.4803098 L463.309815,84.0664664 L451.886243,84.0664664 L451.886243,95.4803098 Z" id="Fill-135" fill="#48443E" mask="url(#mask-6)"></path>
                    <path d="M468.875376,108.592758 L477.449939,108.592758 L477.449939,100.040125 L468.875376,100.040125 L468.875376,108.592758 Z M467.451109,110.022886 L478.874206,110.022886 L478.874206,98.6090429 L467.451109,98.6090429 L467.451109,110.022886 Z" id="Fill-136" fill="#48443E" mask="url(#mask-6)"></path>
                    <path d="M453.310511,108.592758 L461.885548,108.592758 L461.885548,100.040125 L453.310511,100.040125 L453.310511,108.592758 Z M451.886243,110.022886 L463.309815,110.022886 L463.309815,98.6090429 L451.886243,98.6090429 L451.886243,110.022886 Z" id="Fill-137" fill="#48443E" mask="url(#mask-6)"></path>
                    <path d="M468.875376,123.134858 L477.449939,123.134858 L477.449939,114.582701 L468.875376,114.582701 L468.875376,123.134858 Z M467.451109,124.565463 L478.874206,124.565463 L478.874206,113.152096 L467.451109,113.152096 L467.451109,124.565463 Z" id="Fill-138" fill="#48443E" mask="url(#mask-6)"></path>
                    <path d="M453.310511,123.134858 L461.885548,123.134858 L461.885548,114.582701 L453.310511,114.582701 L453.310511,123.134858 Z M451.886243,124.565463 L463.309815,124.565463 L463.309815,113.152096 L451.886243,113.152096 L451.886243,124.565463 Z" id="Fill-139" fill="#48443E" mask="url(#mask-6)"></path>
                    <polygon id="Fill-140" fill="#48443E" mask="url(#mask-6)" points="452.598377 129.235911 478.162072 129.235911 478.162072 127.805306 452.598377 127.805306"></polygon>
                    <polygon id="Fill-141" fill="#FFFFFF" mask="url(#mask-6)" points="444.243151 81.6473134 498.160207 81.6473134 498.160207 77.8752849 444.243151 77.8752849"></polygon>
                    <path d="M444.955285,80.9324877 L497.448073,80.9324877 L497.448073,78.5910642 L444.955285,78.5910642 L444.955285,80.9324877 Z M443.531018,82.3630927 L498.87234,82.3630927 L498.87234,77.1604593 L443.531018,77.1604593 L443.531018,82.3630927 Z" id="Fill-142" fill="#48443E" mask="url(#mask-6)"></path>
                    <path d="M315.447912,80.7487815 C312.95402,80.7487815 310.924914,78.7116 310.924914,76.2066107 C310.924914,75.806995 310.981885,75.4207317 311.078735,75.0511587 L319.81519,75.0511587 C319.91204,75.4207317 319.96901,75.806995 319.96901,76.2066107 C319.96901,78.7116 317.940854,80.7487815 315.447912,80.7487815" id="Fill-143" fill="#FCBD5F" mask="url(#mask-6)"></path>
                    <path d="M343.69863,80.7487815 C341.204738,80.7487815 339.175632,78.7116 339.175632,76.2066107 C339.175632,75.806995 339.232603,75.4207317 339.329453,75.0511587 L348.065907,75.0511587 C348.162757,75.4207317 348.219728,75.806995 348.219728,76.2066107 C348.219728,78.7116 346.191572,80.7487815 343.69863,80.7487815" id="Fill-144" fill="#FCBD5F" mask="url(#mask-6)"></path>
                </g>
            </g>
        </g>
    </g>
</svg>