<?xml version="1.0" encoding="UTF-8"?>
<svg width="5px" height="10px" viewBox="0 0 5 10" version="1.1" xmlns="http://www.w3.org/2000/svg" xmlns:xlink="http://www.w3.org/1999/xlink">
    <!-- Generator: Sketch 52.4 (67378) - http://www.bohemiancoding.com/sketch -->
    <title>Shape</title>
    <desc>Created with Sketch.</desc>
    <g id="Page-1" stroke="none" stroke-width="1" fill="none" fill-rule="evenodd">
        <g id="01-Homepage" transform="translate(-1314.000000, -52.000000)" fill="#FFFFFF" fill-rule="nonzero">
            <path d="M1318.12548,55.4356489 L1315.46458,52.7132077 C1315.18654,52.4287426 1314.73598,52.4289612 1314.4582,52.7136814 C1314.18042,52.9984016 1314.18063,53.4598058 1314.45866,53.744271 L1317.11935,56.4664571 C1317.39681,56.7505943 1317.39681,57.2129094 1317.11935,57.4970466 C1317.11832,57.4981033 1317.11728,57.4991964 1317.11625,57.5002531 L1314.45535,60.2591314 C1314.17917,60.5454913 1314.18195,61.0068955 1314.46158,61.289721 C1314.60024,61.4300042 1314.78096,61.5 1314.9616,61.5 C1315.1452,61.5 1315.32873,61.4276722 1315.46792,61.2833445 L1318.12747,58.5258871 C1318.95814,57.6733297 1318.95754,56.2877327 1318.12548,55.4356489 Z" id="Shape"></path>
        </g>
    </g>
</svg>