<?xml version="1.0" encoding="UTF-8"?>
<svg width="32px" height="21px" viewBox="0 0 32 21" version="1.1" xmlns="http://www.w3.org/2000/svg" xmlns:xlink="http://www.w3.org/1999/xlink">
    <!-- Generator: Sketch 52.4 (67378) - http://www.bohemiancoding.com/sketch -->
    <title>united-kingdom</title>
    <desc>Created with Sketch.</desc>
    <g id="Page-1" stroke="none" stroke-width="1" fill="none" fill-rule="evenodd">
        <g id="01-Homepage" transform="translate(-1366.000000, -46.000000)" fill-rule="nonzero">
            <g id="Group-2" transform="translate(1366.000000, 46.000000)">
                <g id="united-kingdom">
                    <path d="M29.6034375,0 L2.3965625,0 C1.0729375,0 0,1.07469988 0,2.40049903 L0,18.599501 C0,19.9252375 1.0729375,21 2.3965625,21 L29.6034375,21 C30.927,21 32,19.9253001 32,18.599501 L32,2.40049903 C32,1.07469988 30.9270625,0 29.6034375,0 Z" id="Shape" fill="#41479B"></path>
                    <path d="M31.9668125,2.00372337 C31.7779375,0.866921648 30.792,0 29.6034375,0 L28.979875,0 L18.758625,6.70768731 L18.758625,6.26026609e-05 L13.241375,6.26026609e-05 L13.241375,6.70774991 L3.020125,6.26026609e-05 L2.3965625,6.26026609e-05 C1.208,6.26026609e-05 0.2220625,0.866921648 0.0331875,2.00378597 L8.7693125,7.73693766 L0,7.73693766 L0,13.2632502 L8.7693125,13.2632502 L0.0331875,18.9962766 C0.2220625,20.1330784 1.208,21 2.3965625,21 L3.020125,21 L13.241375,14.2923127 L13.241375,21 L18.758625,21 L18.758625,14.2923127 L28.979875,21 L29.6034375,21 C30.792,21 31.7779375,20.133141 31.9668125,18.9962766 L23.2306875,13.2631249 L32,13.2631249 L32,7.73681245 L23.2306875,7.73681245 L31.9668125,2.00372337 Z" id="Shape" fill="#F5F5F5"></path>
                    <g id="Group" fill="#FF4B55">
                        <polygon id="Shape" points="17.6551875 0.01725 14.3448125 0.01725 14.3448125 8.8448125 0 8.8448125 0 12.1551875 14.3448125 12.1551875 14.3448125 20.98275 17.6551875 20.98275 17.6551875 12.1551875 32 12.1551875 32 8.8448125 17.6551875 8.8448125"></polygon>
                        <path d="M1.5495625,20.82825 L13.211,13.258625 L11.18425,13.258625 L0.5765,20.144375 C0.8360625,20.4473125 1.169625,20.6846875 1.5495625,20.82825 Z" id="Shape"></path>
                        <path d="M21.64925,13.258625 L19.6225,13.258625 L30.91725,20.5901875 C31.2333125,20.382625 31.4970625,20.10225 31.6851875,19.773 L21.64925,13.258625 Z" id="Shape"></path>
                        <path d="M0.2530625,1.3421875 L10.1111875,7.741375 L12.1379375,7.741375 L0.9671875,0.490125 C0.66725,0.713375 0.4218125,1.00525 0.2530625,1.3421875 Z" id="Shape"></path>
                        <path d="M20.785375,7.741375 L31.4125625,0.8429375 C31.150125,0.541 30.8139375,0.305 30.431375,0.1641875 L18.758625,7.741375 L20.785375,7.741375 Z" id="Shape"></path>
                    </g>
                </g>
            </g>
        </g>
    </g>
</svg>