<svg width="237" height="63" viewBox="0 0 237 63" fill="none" xmlns="http://www.w3.org/2000/svg">
<rect x="0.5" y="0.5" width="236" height="62" rx="31" stroke="#6D7893"/>
<path d="M79.5391 27H78.2266L75.9219 19.3516C75.8125 19.013 75.6901 18.5859 75.5547 18.0703C75.4193 17.5547 75.349 17.2448 75.3438 17.1406C75.2292 17.8281 75.0469 18.5807 74.7969 19.3984L72.5625 27H71.25L68.2109 15.5781H69.6172L71.4219 22.6328C71.6719 23.6224 71.8542 24.5182 71.9688 25.3203C72.1094 24.3672 72.3177 23.4349 72.5938 22.5234L74.6406 15.5781H76.0469L78.1953 22.5859C78.4453 23.3932 78.6562 24.3047 78.8281 25.3203C78.9271 24.5807 79.1146 23.6797 79.3906 22.6172L81.1875 15.5781H82.5938L79.5391 27ZM89.4531 27L89.1953 25.7812H89.1328C88.7057 26.3177 88.2786 26.6823 87.8516 26.875C87.4297 27.0625 86.901 27.1562 86.2656 27.1562C85.4167 27.1562 84.75 26.9375 84.2656 26.5C83.7865 26.0625 83.5469 25.4401 83.5469 24.6328C83.5469 22.9036 84.9297 21.9974 87.6953 21.9141L89.1484 21.8672V21.3359C89.1484 20.6641 89.0026 20.1693 88.7109 19.8516C88.4245 19.5286 87.9635 19.3672 87.3281 19.3672C86.6146 19.3672 85.8073 19.5859 84.9062 20.0234L84.5078 19.0312C84.9297 18.8021 85.3906 18.6224 85.8906 18.4922C86.3958 18.362 86.901 18.2969 87.4062 18.2969C88.4271 18.2969 89.1823 18.5234 89.6719 18.9766C90.1667 19.4297 90.4141 20.1562 90.4141 21.1562V27H89.4531ZM86.5234 26.0859C87.3307 26.0859 87.9635 25.8646 88.4219 25.4219C88.8854 24.9792 89.1172 24.3594 89.1172 23.5625V22.7891L87.8203 22.8438C86.7891 22.8802 86.0443 23.0417 85.5859 23.3281C85.1328 23.6094 84.9062 24.0495 84.9062 24.6484C84.9062 25.1172 85.0469 25.474 85.3281 25.7188C85.6146 25.9635 86.013 26.0859 86.5234 26.0859ZM95.8594 26.0859C96.0885 26.0859 96.3099 26.0703 96.5234 26.0391C96.737 26.0026 96.9062 25.9661 97.0312 25.9297V26.9219C96.8906 26.9896 96.6823 27.0443 96.4062 27.0859C96.1354 27.1328 95.8906 27.1562 95.6719 27.1562C94.0156 27.1562 93.1875 26.2839 93.1875 24.5391V19.4453H91.9609V18.8203L93.1875 18.2812L93.7344 16.4531H94.4844V18.4375H96.9688V19.4453H94.4844V24.4844C94.4844 25 94.6068 25.3958 94.8516 25.6719C95.0964 25.9479 95.4323 26.0859 95.8594 26.0859ZM102.172 27.1562C100.932 27.1562 99.9714 26.776 99.2891 26.0156C98.612 25.25 98.2734 24.1693 98.2734 22.7734C98.2734 21.3411 98.6172 20.2344 99.3047 19.4531C99.9974 18.6719 100.982 18.2812 102.258 18.2812C102.669 18.2812 103.081 18.3255 103.492 18.4141C103.904 18.5026 104.227 18.6068 104.461 18.7266L104.062 19.8281C103.776 19.7135 103.464 19.6198 103.125 19.5469C102.786 19.4688 102.487 19.4297 102.227 19.4297C100.487 19.4297 99.6172 20.5391 99.6172 22.7578C99.6172 23.8099 99.8281 24.6172 100.25 25.1797C100.677 25.7422 101.307 26.0234 102.141 26.0234C102.854 26.0234 103.586 25.8698 104.336 25.5625V26.7109C103.763 27.0078 103.042 27.1562 102.172 27.1562ZM112.234 27V21.4609C112.234 20.763 112.076 20.2422 111.758 19.8984C111.44 19.5547 110.943 19.3828 110.266 19.3828C109.365 19.3828 108.706 19.6276 108.289 20.1172C107.878 20.6068 107.672 21.4089 107.672 22.5234V27H106.375V14.8438H107.672V18.5234C107.672 18.9661 107.651 19.3333 107.609 19.625H107.688C107.943 19.2135 108.305 18.8906 108.773 18.6562C109.247 18.4167 109.786 18.2969 110.391 18.2969C111.438 18.2969 112.221 18.5469 112.742 19.0469C113.268 19.5417 113.531 20.3307 113.531 21.4141V27H112.234ZM127.75 22.7109C127.75 24.1068 127.398 25.1979 126.695 25.9844C125.992 26.7656 125.021 27.1562 123.781 27.1562C123.016 27.1562 122.336 26.9766 121.742 26.6172C121.148 26.2578 120.69 25.7422 120.367 25.0703C120.044 24.3984 119.883 23.612 119.883 22.7109C119.883 21.3151 120.232 20.2292 120.93 19.4531C121.628 18.6719 122.596 18.2812 123.836 18.2812C125.034 18.2812 125.984 18.6797 126.688 19.4766C127.396 20.2734 127.75 21.3516 127.75 22.7109ZM121.227 22.7109C121.227 23.8047 121.445 24.638 121.883 25.2109C122.32 25.7839 122.964 26.0703 123.812 26.0703C124.661 26.0703 125.305 25.7865 125.742 25.2188C126.185 24.6458 126.406 23.8099 126.406 22.7109C126.406 21.6224 126.185 20.7969 125.742 20.2344C125.305 19.6667 124.656 19.3828 123.797 19.3828C122.948 19.3828 122.307 19.6615 121.875 20.2188C121.443 20.776 121.227 21.6068 121.227 22.7109ZM131.25 18.4375V23.9922C131.25 24.6901 131.409 25.2109 131.727 25.5547C132.044 25.8984 132.542 26.0703 133.219 26.0703C134.115 26.0703 134.768 25.8255 135.18 25.3359C135.596 24.8464 135.805 24.0469 135.805 22.9375V18.4375H137.102V27H136.031L135.844 25.8516H135.773C135.508 26.2734 135.138 26.5964 134.664 26.8203C134.195 27.0443 133.659 27.1562 133.055 27.1562C132.013 27.1562 131.232 26.9089 130.711 26.4141C130.195 25.9193 129.938 25.1276 129.938 24.0391V18.4375H131.25ZM143.766 18.2812C144.146 18.2812 144.487 18.3125 144.789 18.375L144.609 19.5781C144.255 19.5 143.943 19.4609 143.672 19.4609C142.979 19.4609 142.385 19.7422 141.891 20.3047C141.401 20.8672 141.156 21.5677 141.156 22.4062V27H139.859V18.4375H140.93L141.078 20.0234H141.141C141.458 19.4661 141.841 19.0365 142.289 18.7344C142.737 18.4323 143.229 18.2812 143.766 18.2812ZM152.422 27L149.172 18.4375H150.562L152.406 23.5156C152.823 24.7031 153.068 25.474 153.141 25.8281H153.203C153.26 25.5521 153.44 24.9818 153.742 24.1172C154.049 23.2474 154.734 21.3542 155.797 18.4375H157.188L153.938 27H152.422ZM159.859 27H158.562V18.4375H159.859V27ZM158.453 16.1172C158.453 15.8203 158.526 15.6042 158.672 15.4688C158.818 15.3281 159 15.2578 159.219 15.2578C159.427 15.2578 159.607 15.3281 159.758 15.4688C159.909 15.6094 159.984 15.8255 159.984 16.1172C159.984 16.4089 159.909 16.6276 159.758 16.7734C159.607 16.9141 159.427 16.9844 159.219 16.9844C159 16.9844 158.818 16.9141 158.672 16.7734C158.526 16.6276 158.453 16.4089 158.453 16.1172ZM168.438 25.8516H168.367C167.768 26.7214 166.872 27.1562 165.68 27.1562C164.56 27.1562 163.688 26.7734 163.062 26.0078C162.443 25.2422 162.133 24.1536 162.133 22.7422C162.133 21.3307 162.445 20.2344 163.07 19.4531C163.695 18.6719 164.565 18.2812 165.68 18.2812C166.841 18.2812 167.732 18.7031 168.352 19.5469H168.453L168.398 18.9297L168.367 18.3281V14.8438H169.664V27H168.609L168.438 25.8516ZM165.844 26.0703C166.729 26.0703 167.37 25.8307 167.766 25.3516C168.167 24.8672 168.367 24.0885 168.367 23.0156V22.7422C168.367 21.5286 168.164 20.6641 167.758 20.1484C167.357 19.6276 166.714 19.3672 165.828 19.3672C165.068 19.3672 164.484 19.6641 164.078 20.2578C163.677 20.8464 163.477 21.6797 163.477 22.7578C163.477 23.8516 163.677 24.6771 164.078 25.2344C164.479 25.7917 165.068 26.0703 165.844 26.0703ZM176.039 27.1562C174.773 27.1562 173.773 26.7708 173.039 26C172.31 25.2292 171.945 24.1589 171.945 22.7891C171.945 21.4089 172.284 20.3125 172.961 19.5C173.643 18.6875 174.557 18.2812 175.703 18.2812C176.776 18.2812 177.625 18.6354 178.25 19.3438C178.875 20.0469 179.188 20.9766 179.188 22.1328V22.9531H173.289C173.315 23.9583 173.568 24.7214 174.047 25.2422C174.531 25.763 175.211 26.0234 176.086 26.0234C177.008 26.0234 177.919 25.8307 178.82 25.4453V26.6016C178.362 26.7995 177.927 26.9401 177.516 27.0234C177.109 27.112 176.617 27.1562 176.039 27.1562ZM175.688 19.3672C175 19.3672 174.451 19.5911 174.039 20.0391C173.633 20.487 173.393 21.1068 173.32 21.8984H177.797C177.797 21.0807 177.615 20.4557 177.25 20.0234C176.885 19.5859 176.365 19.3672 175.688 19.3672ZM188.797 22.7109C188.797 24.1068 188.445 25.1979 187.742 25.9844C187.039 26.7656 186.068 27.1562 184.828 27.1562C184.062 27.1562 183.383 26.9766 182.789 26.6172C182.195 26.2578 181.737 25.7422 181.414 25.0703C181.091 24.3984 180.93 23.612 180.93 22.7109C180.93 21.3151 181.279 20.2292 181.977 19.4531C182.674 18.6719 183.643 18.2812 184.883 18.2812C186.081 18.2812 187.031 18.6797 187.734 19.4766C188.443 20.2734 188.797 21.3516 188.797 22.7109ZM182.273 22.7109C182.273 23.8047 182.492 24.638 182.93 25.2109C183.367 25.7839 184.01 26.0703 184.859 26.0703C185.708 26.0703 186.352 25.7865 186.789 25.2188C187.232 24.6458 187.453 23.8099 187.453 22.7109C187.453 21.6224 187.232 20.7969 186.789 20.2344C186.352 19.6667 185.703 19.3828 184.844 19.3828C183.995 19.3828 183.354 19.6615 182.922 20.2188C182.49 20.776 182.273 21.6068 182.273 22.7109ZM198 26.0859C198.229 26.0859 198.451 26.0703 198.664 26.0391C198.878 26.0026 199.047 25.9661 199.172 25.9297V26.9219C199.031 26.9896 198.823 27.0443 198.547 27.0859C198.276 27.1328 198.031 27.1562 197.812 27.1562C196.156 27.1562 195.328 26.2839 195.328 24.5391V19.4453H194.102V18.8203L195.328 18.2812L195.875 16.4531H196.625V18.4375H199.109V19.4453H196.625V24.4844C196.625 25 196.747 25.3958 196.992 25.6719C197.237 25.9479 197.573 26.0859 198 26.0859ZM208.281 22.7109C208.281 24.1068 207.93 25.1979 207.227 25.9844C206.523 26.7656 205.552 27.1562 204.312 27.1562C203.547 27.1562 202.867 26.9766 202.273 26.6172C201.68 26.2578 201.221 25.7422 200.898 25.0703C200.576 24.3984 200.414 23.612 200.414 22.7109C200.414 21.3151 200.763 20.2292 201.461 19.4531C202.159 18.6719 203.128 18.2812 204.367 18.2812C205.565 18.2812 206.516 18.6797 207.219 19.4766C207.927 20.2734 208.281 21.3516 208.281 22.7109ZM201.758 22.7109C201.758 23.8047 201.977 24.638 202.414 25.2109C202.852 25.7839 203.495 26.0703 204.344 26.0703C205.193 26.0703 205.836 25.7865 206.273 25.2188C206.716 24.6458 206.938 23.8099 206.938 22.7109C206.938 21.6224 206.716 20.7969 206.273 20.2344C205.836 19.6667 205.188 19.3828 204.328 19.3828C203.479 19.3828 202.839 19.6615 202.406 20.2188C201.974 20.776 201.758 21.6068 201.758 22.7109ZM74.8984 43.6641C74.8984 44.4609 74.6016 45.0755 74.0078 45.5078C73.4141 45.9401 72.5807 46.1562 71.5078 46.1562C70.3724 46.1562 69.487 45.9766 68.8516 45.6172V44.4141C69.263 44.6224 69.7031 44.7865 70.1719 44.9062C70.6458 45.026 71.1016 45.0859 71.5391 45.0859C72.2161 45.0859 72.737 44.9792 73.1016 44.7656C73.4661 44.5469 73.6484 44.2161 73.6484 43.7734C73.6484 43.4401 73.5026 43.1562 73.2109 42.9219C72.9245 42.6823 72.362 42.401 71.5234 42.0781C70.7266 41.7812 70.1589 41.5234 69.8203 41.3047C69.487 41.0807 69.237 40.8281 69.0703 40.5469C68.9089 40.2656 68.8281 39.9297 68.8281 39.5391C68.8281 38.8411 69.112 38.2917 69.6797 37.8906C70.2474 37.4844 71.026 37.2812 72.0156 37.2812C72.9375 37.2812 73.8385 37.4688 74.7188 37.8438L74.2578 38.8984C73.3984 38.5443 72.6198 38.3672 71.9219 38.3672C71.3073 38.3672 70.8438 38.4635 70.5312 38.6562C70.2188 38.849 70.0625 39.1146 70.0625 39.4531C70.0625 39.6823 70.1198 39.8776 70.2344 40.0391C70.3542 40.2005 70.5443 40.3542 70.8047 40.5C71.0651 40.6458 71.5651 40.8568 72.3047 41.1328C73.3203 41.5026 74.0052 41.875 74.3594 42.25C74.7188 42.625 74.8984 43.0964 74.8984 43.6641ZM80.6328 46.1562C79.3672 46.1562 78.3672 45.7708 77.6328 45C76.9036 44.2292 76.5391 43.1589 76.5391 41.7891C76.5391 40.4089 76.8776 39.3125 77.5547 38.5C78.237 37.6875 79.151 37.2812 80.2969 37.2812C81.3698 37.2812 82.2188 37.6354 82.8438 38.3438C83.4688 39.0469 83.7812 39.9766 83.7812 41.1328V41.9531H77.8828C77.9089 42.9583 78.1615 43.7214 78.6406 44.2422C79.125 44.763 79.8047 45.0234 80.6797 45.0234C81.6016 45.0234 82.513 44.8307 83.4141 44.4453V45.6016C82.9557 45.7995 82.5208 45.9401 82.1094 46.0234C81.7031 46.112 81.2109 46.1562 80.6328 46.1562ZM80.2812 38.3672C79.5938 38.3672 79.0443 38.5911 78.6328 39.0391C78.2266 39.487 77.987 40.1068 77.9141 40.8984H82.3906C82.3906 40.0807 82.2083 39.4557 81.8438 39.0234C81.4792 38.5859 80.9583 38.3672 80.2812 38.3672ZM89.6172 46.1562C88.3516 46.1562 87.3516 45.7708 86.6172 45C85.888 44.2292 85.5234 43.1589 85.5234 41.7891C85.5234 40.4089 85.862 39.3125 86.5391 38.5C87.2214 37.6875 88.1354 37.2812 89.2812 37.2812C90.3542 37.2812 91.2031 37.6354 91.8281 38.3438C92.4531 39.0469 92.7656 39.9766 92.7656 41.1328V41.9531H86.8672C86.8932 42.9583 87.1458 43.7214 87.625 44.2422C88.1094 44.763 88.7891 45.0234 89.6641 45.0234C90.5859 45.0234 91.4974 44.8307 92.3984 44.4453V45.6016C91.9401 45.7995 91.5052 45.9401 91.0938 46.0234C90.6875 46.112 90.1953 46.1562 89.6172 46.1562ZM89.2656 38.3672C88.5781 38.3672 88.0286 38.5911 87.6172 39.0391C87.2109 39.487 86.9714 40.1068 86.8984 40.8984H91.375C91.375 40.0807 91.1927 39.4557 90.8281 39.0234C90.4635 38.5859 89.9427 38.3672 89.2656 38.3672ZM105 46V40.4609C105 39.763 104.841 39.2422 104.523 38.8984C104.206 38.5547 103.708 38.3828 103.031 38.3828C102.13 38.3828 101.471 38.6276 101.055 39.1172C100.643 39.6068 100.438 40.4089 100.438 41.5234V46H99.1406V33.8438H100.438V37.5234C100.438 37.9661 100.417 38.3333 100.375 38.625H100.453C100.708 38.2135 101.07 37.8906 101.539 37.6562C102.013 37.4167 102.552 37.2969 103.156 37.2969C104.203 37.2969 104.987 37.5469 105.508 38.0469C106.034 38.5417 106.297 39.3307 106.297 40.4141V46H105ZM116.359 41.7109C116.359 43.1068 116.008 44.1979 115.305 44.9844C114.602 45.7656 113.63 46.1562 112.391 46.1562C111.625 46.1562 110.945 45.9766 110.352 45.6172C109.758 45.2578 109.299 44.7422 108.977 44.0703C108.654 43.3984 108.492 42.612 108.492 41.7109C108.492 40.3151 108.841 39.2292 109.539 38.4531C110.237 37.6719 111.206 37.2812 112.445 37.2812C113.643 37.2812 114.594 37.6797 115.297 38.4766C116.005 39.2734 116.359 40.3516 116.359 41.7109ZM109.836 41.7109C109.836 42.8047 110.055 43.638 110.492 44.2109C110.93 44.7839 111.573 45.0703 112.422 45.0703C113.271 45.0703 113.914 44.7865 114.352 44.2188C114.794 43.6458 115.016 42.8099 115.016 41.7109C115.016 40.6224 114.794 39.7969 114.352 39.2344C113.914 38.6667 113.266 38.3828 112.406 38.3828C111.557 38.3828 110.917 38.6615 110.484 39.2188C110.052 39.776 109.836 40.6068 109.836 41.7109ZM125.633 46L124.062 40.9766C123.964 40.6693 123.779 39.9714 123.508 38.8828H123.445C123.237 39.7943 123.055 40.4974 122.898 40.9922L121.281 46H119.781L117.445 37.4375H118.805C119.357 39.5885 119.776 41.2266 120.062 42.3516C120.354 43.4766 120.521 44.2344 120.562 44.625H120.625C120.682 44.3281 120.773 43.9453 120.898 43.4766C121.029 43.0026 121.141 42.6276 121.234 42.3516L122.805 37.4375H124.211L125.742 42.3516C126.034 43.2474 126.232 44 126.336 44.6094H126.398C126.419 44.4219 126.474 44.1328 126.562 43.7422C126.656 43.3516 127.201 41.25 128.195 37.4375H129.539L127.172 46H125.633ZM136.547 46H135.25V37.4375H136.547V46ZM135.141 35.1172C135.141 34.8203 135.214 34.6042 135.359 34.4688C135.505 34.3281 135.688 34.2578 135.906 34.2578C136.115 34.2578 136.294 34.3281 136.445 34.4688C136.596 34.6094 136.672 34.8255 136.672 35.1172C136.672 35.4089 136.596 35.6276 136.445 35.7734C136.294 35.9141 136.115 35.9844 135.906 35.9844C135.688 35.9844 135.505 35.9141 135.359 35.7734C135.214 35.6276 135.141 35.4089 135.141 35.1172ZM142.062 45.0859C142.292 45.0859 142.513 45.0703 142.727 45.0391C142.94 45.0026 143.109 44.9661 143.234 44.9297V45.9219C143.094 45.9896 142.885 46.0443 142.609 46.0859C142.339 46.1328 142.094 46.1562 141.875 46.1562C140.219 46.1562 139.391 45.2839 139.391 43.5391V38.4453H138.164V37.8203L139.391 37.2812L139.938 35.4531H140.688V37.4375H143.172V38.4453H140.688V43.4844C140.688 44 140.81 44.3958 141.055 44.6719C141.299 44.9479 141.635 45.0859 142.062 45.0859ZM156.102 46L154.531 40.9766C154.432 40.6693 154.247 39.9714 153.977 38.8828H153.914C153.706 39.7943 153.523 40.4974 153.367 40.9922L151.75 46H150.25L147.914 37.4375H149.273C149.826 39.5885 150.245 41.2266 150.531 42.3516C150.823 43.4766 150.99 44.2344 151.031 44.625H151.094C151.151 44.3281 151.242 43.9453 151.367 43.4766C151.497 43.0026 151.609 42.6276 151.703 42.3516L153.273 37.4375H154.68L156.211 42.3516C156.503 43.2474 156.701 44 156.805 44.6094H156.867C156.888 44.4219 156.943 44.1328 157.031 43.7422C157.125 43.3516 157.669 41.25 158.664 37.4375H160.008L157.641 46H156.102ZM168.953 41.7109C168.953 43.1068 168.602 44.1979 167.898 44.9844C167.195 45.7656 166.224 46.1562 164.984 46.1562C164.219 46.1562 163.539 45.9766 162.945 45.6172C162.352 45.2578 161.893 44.7422 161.57 44.0703C161.247 43.3984 161.086 42.612 161.086 41.7109C161.086 40.3151 161.435 39.2292 162.133 38.4531C162.831 37.6719 163.799 37.2812 165.039 37.2812C166.237 37.2812 167.188 37.6797 167.891 38.4766C168.599 39.2734 168.953 40.3516 168.953 41.7109ZM162.43 41.7109C162.43 42.8047 162.648 43.638 163.086 44.2109C163.523 44.7839 164.167 45.0703 165.016 45.0703C165.865 45.0703 166.508 44.7865 166.945 44.2188C167.388 43.6458 167.609 42.8099 167.609 41.7109C167.609 40.6224 167.388 39.7969 166.945 39.2344C166.508 38.6667 165.859 38.3828 165 38.3828C164.151 38.3828 163.51 38.6615 163.078 39.2188C162.646 39.776 162.43 40.6068 162.43 41.7109ZM175.141 37.2812C175.521 37.2812 175.862 37.3125 176.164 37.375L175.984 38.5781C175.63 38.5 175.318 38.4609 175.047 38.4609C174.354 38.4609 173.76 38.7422 173.266 39.3047C172.776 39.8672 172.531 40.5677 172.531 41.4062V46H171.234V37.4375H172.305L172.453 39.0234H172.516C172.833 38.4661 173.216 38.0365 173.664 37.7344C174.112 37.4323 174.604 37.2812 175.141 37.2812ZM179.047 41.6172C179.271 41.2995 179.612 40.8828 180.07 40.3672L182.836 37.4375H184.375L180.906 41.0859L184.617 46H183.047L180.023 41.9531L179.047 42.7969V46H177.766V33.8438H179.047V40.2891C179.047 40.5755 179.026 41.0182 178.984 41.6172H179.047ZM191.695 43.6641C191.695 44.4609 191.398 45.0755 190.805 45.5078C190.211 45.9401 189.378 46.1562 188.305 46.1562C187.169 46.1562 186.284 45.9766 185.648 45.6172V44.4141C186.06 44.6224 186.5 44.7865 186.969 44.9062C187.443 45.026 187.898 45.0859 188.336 45.0859C189.013 45.0859 189.534 44.9792 189.898 44.7656C190.263 44.5469 190.445 44.2161 190.445 43.7734C190.445 43.4401 190.299 43.1562 190.008 42.9219C189.721 42.6823 189.159 42.401 188.32 42.0781C187.523 41.7812 186.956 41.5234 186.617 41.3047C186.284 41.0807 186.034 40.8281 185.867 40.5469C185.706 40.2656 185.625 39.9297 185.625 39.5391C185.625 38.8411 185.909 38.2917 186.477 37.8906C187.044 37.4844 187.823 37.2812 188.812 37.2812C189.734 37.2812 190.635 37.4688 191.516 37.8438L191.055 38.8984C190.195 38.5443 189.417 38.3672 188.719 38.3672C188.104 38.3672 187.641 38.4635 187.328 38.6562C187.016 38.849 186.859 39.1146 186.859 39.4531C186.859 39.6823 186.917 39.8776 187.031 40.0391C187.151 40.2005 187.341 40.3542 187.602 40.5C187.862 40.6458 188.362 40.8568 189.102 41.1328C190.117 41.5026 190.802 41.875 191.156 42.25C191.516 42.625 191.695 43.0964 191.695 43.6641Z" fill="#6D7893"/>
<path fill-rule="evenodd" clip-rule="evenodd" d="M29.9118 22.103L42.7451 31.0094C42.9043 31.1198 43 31.3033 43 31.4998C43 31.6964 42.9043 31.8799 42.7451 31.9903L29.9118 40.8967C29.8132 40.965 29.6982 41 29.5833 41C29.49 41 29.3961 40.9774 29.3109 40.9311C29.1196 40.8284 29 40.6265 29 40.4062V22.5935C29 22.3732 29.1196 22.1713 29.3103 22.0686C29.5017 21.9659 29.7327 21.9795 29.9118 22.103Z" fill="#6D7893"/>
<path fill-rule="evenodd" clip-rule="evenodd" d="M15 31C15 20.5234 23.5234 12 34 12C44.4766 12 53 20.5234 53 31C53 41.4766 44.4766 50 34 50C23.5234 50 15 41.4766 15 31ZM16.2667 31C16.2667 40.778 24.222 48.7333 34 48.7333C43.778 48.7333 51.7333 40.778 51.7333 31C51.7333 21.222 43.778 13.2667 34 13.2667C24.222 13.2667 16.2667 21.222 16.2667 31Z" fill="#6D7893"/>
</svg>
